<?xml version="1.0" standalone="no"?>
<!DOCTYPE svg PUBLIC "-//W3C//DTD SVG 1.1//EN" "http://www.w3.org/Graphics/SVG/1.1/DTD/svg11.dtd" >
<svg xmlns="http://www.w3.org/2000/svg">
<metadata></metadata>
<defs>
<font id="calendasitalic" horiz-adv-x="1157" >
<font-face units-per-em="2048" ascent="1536" descent="-512" />
<missing-glyph horiz-adv-x="477" />
<glyph unicode="&#x2e;&#x2e;&#x2e;" horiz-adv-x="1828" d="M195 -33q-45 0 -74 29t-29 74q0 55 39.5 99t97.5 44q45 0 73 -28.5t28 -73.5q0 -55 -39.5 -99.5t-95.5 -44.5zM834 -33q-45 0 -74 29t-29 74q0 55 39.5 99t97.5 44q45 0 73 -28.5t28 -73.5q0 -55 -39.5 -99.5t-95.5 -44.5zM1475 -33q-45 0 -74 29t-29 74q0 55 39.5 99 t97.5 44q45 0 73 -28.5t28 -73.5q0 -55 -39.5 -99.5t-95.5 -44.5z" />
<glyph unicode="&#xfb01;" horiz-adv-x="1173" d="M1163 952l-241 -628q-56 -148 -56 -193q0 -29 27 -29q35 0 119 73t121 126l30 -20q-36 -65 -96.5 -135t-140.5 -124.5t-146 -54.5q-39 0 -58.5 18t-19.5 60q0 84 52 225l149 420q15 40 15 66q0 33 -31.5 45t-100.5 12h-303l-170 -510q-29 -88 -59.5 -169t-73 -176.5 t-86.5 -175t-100.5 -156.5t-114.5 -130t-128 -85t-142 -32q-85 0 -125.5 35.5t-40.5 87.5q0 55 36 83t83 28l26 -2q-12 -27 -12 -51q0 -38 25 -60t73 -22q122 0 212.5 128.5t168.5 387.5l252 835h-155l14 50l170 34l18 56q58 175 155.5 314t235.5 225.5t291 86.5 q71 0 123 -16.5t79 -44t39.5 -55.5t12.5 -58q0 -53 -42.5 -97t-102.5 -44q-38 0 -74 18q19 48 19 80q0 20 -5.5 39t-19 40.5t-44 34.5t-73.5 13q-128 0 -223.5 -114t-169.5 -351l-39 -127h549q47 14 98 39z" />
<glyph unicode="&#xfb02;" horiz-adv-x="1234" d="M1370 1536l-414 -1198q-49 -140 -49 -184q0 -43 41 -43q87 0 217 190l31 -22q-28 -53 -60 -100.5t-76.5 -99t-98 -82t-107.5 -30.5q-52 0 -85.5 32t-33.5 103q0 59 35 166l346 1024q10 33 10 74q0 19 -7 39t-24 44.5t-55 40t-92 15.5q-128 0 -223.5 -114t-169.5 -351 l-39 -127h371l-39 -102h-365l-170 -508q-29 -88 -59.5 -169t-73 -176.5t-86.5 -175t-100.5 -156.5t-114.5 -130t-128 -85t-142 -32q-85 0 -125.5 35.5t-40.5 87.5q0 55 36 83t83 28l26 -2q-12 -27 -12 -51q0 -38 25 -60t73 -22q122 0 212.5 128.5t168.5 387.5l252 835h-155 l14 50l170 34l18 56q58 175 155.5 314t235.5 225.5t291 86.5q84 0 142 -32.5t73 -73.5q69 22 119 47z" />
<glyph unicode="&#xfb03;" horiz-adv-x="1783" d="M1774 952l-242 -628q-55 -146 -55 -193q0 -29 26 -29q35 0 119 73t121 126l31 -20q-36 -65 -96.5 -135t-140.5 -124.5t-146 -54.5q-39 0 -58.5 18t-19.5 60q0 86 51 225l149 420q15 40 15 66q0 33 -31 45t-100 12h-303l-170 -510q-29 -88 -59.5 -169t-73 -176.5 t-87 -175.5t-100.5 -156.5t-114.5 -129.5t-128.5 -85t-142 -32q-85 0 -125.5 35.5t-40.5 87.5q0 55 36 83t83 28l27 -2q-13 -29 -13 -51q0 -38 25.5 -60t73.5 -22q122 0 212.5 128.5t168.5 387.5l245 817h-428l-170 -508q-29 -88 -59.5 -169t-73 -176.5t-86.5 -175 t-100.5 -156.5t-114.5 -130t-128 -85t-142 -32q-85 0 -125.5 35.5t-40.5 87.5q0 55 36 83t83 28l26 -2q-12 -27 -12 -51q0 -38 25 -60t73 -22q122 0 212.5 128.5t168.5 387.5l252 835h-155l14 50l170 34l16 54q76 233 245 358t382 125q152 0 225 -66q198 211 443 211 q71 0 123 -16.5t79 -44t39.5 -55.5t12.5 -58q0 -53 -43 -97t-103 -44q-38 0 -74 18q19 48 19 80q0 20 -5 39t-18.5 40.5t-44 34.5t-73.5 13q-128 0 -224 -114.5t-170 -350.5l-39 -127h549q49 15 99 39zM946 913l19 56q48 141 112 248q-6 66 -57 104.5t-133 38.5 q-105 0 -194.5 -76t-139.5 -246l-37 -125h430z" />
<glyph unicode="&#xfb04;" horiz-adv-x="1843" d="M1204 1384q198 211 441 211q84 0 142 -32.5t73 -73.5q66 21 118 47l-413 -1198q-49 -140 -49 -184q0 -43 40 -43q88 0 218 190l30 -22q-28 -53 -60 -100.5t-76.5 -99t-98 -82t-107.5 -30.5q-52 0 -85.5 32t-33.5 103q0 59 35 166l346 1024q11 37 11 74q0 14 -3.5 29.5 t-15.5 36t-30.5 36t-52 26.5t-77.5 11q-128 0 -223.5 -114t-169.5 -351l-39 -127h371l-39 -102h-364l-170 -508q-29 -88 -59.5 -169t-73 -176.5t-87 -175.5t-100.5 -156.5t-114.5 -129.5t-128.5 -85t-142 -32q-85 0 -125.5 35.5t-40.5 87.5q0 55 36 83t83 28l27 -2 q-13 -29 -13 -51q0 -38 25.5 -60t73.5 -22q122 0 212.5 128.5t168.5 387.5l247 817h-428l-170 -508q-29 -88 -59.5 -169t-73 -176.5t-86.5 -175t-100.5 -156.5t-114.5 -130t-128 -85t-142 -32q-85 0 -125.5 35.5t-40.5 87.5q0 55 36 83t83 28l26 -2q-12 -27 -12 -51 q0 -38 25 -60t73 -22q122 0 212.5 128.5t168.5 387.5l252 835h-155l14 50l170 34l16 54q76 233 245 358t382 125q152 0 225 -66zM1077 1217q-6 66 -57 104.5t-133 38.5q-105 0 -194.5 -76t-139.5 -246l-37 -125h430l19 56q48 141 112 248z" />
<glyph horiz-adv-x="2048" />
<glyph horiz-adv-x="2048" />
<glyph unicode="&#xd;" horiz-adv-x="2048" />
<glyph unicode=" "  horiz-adv-x="477" />
<glyph unicode="&#x09;" horiz-adv-x="477" />
<glyph unicode="&#xa0;" horiz-adv-x="477" />
<glyph unicode="!" horiz-adv-x="585" d="M580 1462q45 0 72.5 -28.5t27.5 -73.5q0 -15 -4 -35q-26 -131 -133.5 -421.5t-136.5 -424.5l-15 -96h-69q12 37 24 96q28 127 42.5 426t51.5 432q18 63 56 94t84 31zM266 -33q-45 0 -73.5 29t-28.5 74q0 55 39.5 99t97.5 44q45 0 72.5 -28.5t27.5 -73.5 q0 -55 -39.5 -99.5t-95.5 -44.5z" />
<glyph unicode="&#x22;" horiz-adv-x="661" d="M385 1452q29 0 46.5 -17t17.5 -44q0 -8 -5 -33q-15 -74 -65.5 -183t-69.5 -198l-8 -55h-55q8 28 14 55q19 89 19 217q0 115 16 178q9 36 32.5 58t57.5 22zM639 1452q29 0 46 -17t17 -44q0 -13 -4 -33q-15 -74 -65.5 -183t-69.5 -198l-8 -55h-55q8 28 14 55q18 84 18 217 q0 111 17 178q9 36 32.5 58t57.5 22z" />
<glyph unicode="#" horiz-adv-x="993" d="M899 328l-29 -95h-174l-69 -233h-107l70 233h-219l-70 -233h-106l69 233h-172l27 95h172l76 264h-170l26 94h172l72 248h106l-71 -248h219l72 248h106l-72 -248h177l-29 -94h-176l-76 -264h176zM616 328l76 264h-219l-76 -264h219z" />
<glyph unicode="$" horiz-adv-x="686" d="M754 838q0 -47 -34 -80t-89 -33q-17 0 -33 4q10 20 10 41q0 88 -106 88q-73 0 -113.5 -44.5t-40.5 -98.5q0 -42 20.5 -83.5t50 -78.5t59.5 -76.5t50.5 -91.5t20.5 -109q0 -60 -26.5 -113.5t-70 -90.5t-94.5 -61.5t-104 -35.5l-104 -311h-76q53 141 110 303 q-75 0 -125.5 25t-50.5 84q0 52 36.5 83t86.5 31l21 -2q-13 -23 -13 -45q0 -31 31 -51t72 -20q76 0 122 32.5t46 104.5q0 46 -17.5 90.5t-43 82.5t-51 77t-43 90.5t-17.5 107.5q0 111 90.5 194.5t199.5 98.5l113 334h76q-64 -160 -119 -332q72 -6 114 -37.5t42 -76.5z" />
<glyph unicode="%" horiz-adv-x="1552" d="M1356 1300h125q-437 -516 -582 -690l-547 -661h-127q445 518 592 694zM608 1235q-48 0 -88 -37.5t-63 -93t-35 -111t-12 -98.5q0 -71 28.5 -111.5t73.5 -40.5q48 0 87.5 36.5t63 91t36 109.5t12.5 99q0 69 -26 112.5t-77 43.5zM657 1317q95 0 147 -60t52 -157 q0 -111 -54 -212.5t-145.5 -163.5t-193.5 -62q-89 0 -143 56t-54 156q0 111 53.5 213.5t144.5 166t193 63.5zM1176 502q-48 0 -88 -37.5t-63 -93t-35.5 -111t-12.5 -98.5q0 -71 28.5 -111.5t73.5 -40.5q48 0 87.5 36.5t63 91t36 109.5t12.5 99q0 69 -25.5 112.5t-76.5 43.5z M1225 584q95 0 146.5 -60t51.5 -157q0 -111 -54 -212.5t-145.5 -164t-193.5 -62.5q-89 0 -142.5 56.5t-53.5 156.5q0 111 53.5 213.5t144.5 166t193 63.5z" />
<glyph unicode="&#x26;" horiz-adv-x="1497" d="M791 1462q102 0 163.5 -50t61.5 -130q0 -73 -48.5 -119.5t-119.5 -46.5q-56 0 -92 25q69 62 69 141q0 102 -106 102q-28 0 -57 -13t-56 -39.5t-44 -76t-17 -114.5q0 -87 28 -219q83 0 131 -31t48 -86q0 -36 -26 -57t-62 -21q4 16 4 41q0 102 -105 102q-89 0 -159 -61 t-104 -147.5t-34 -174.5q0 -209 127 -308t357 -99q144 0 271 62.5t202 167t75 222.5q0 107 -62.5 191.5t-162.5 105.5q-168 -79 -168 -231q0 -56 37 -89.5t84 -33.5q32 0 59 12q5 -20 5 -41q-1 -48 -37 -75t-90 -27q-88 0 -145.5 56.5t-57.5 144.5q0 62 23 114t62.5 89.5 t90.5 70.5t107 61t112 55.5t107 59t90.5 68t62.5 86t23 108.5q0 50 -31 93t-84 61q31 64 104 64q83 0 132 -61.5t49 -141.5q0 -65 -21 -117.5t-54.5 -90t-88 -69.5t-110 -54t-130.5 -44v-8q166 -119 166 -334q0 -155 -103 -291.5t-273 -216.5t-361 -80q-88 0 -169 16.5 t-152.5 51.5t-124 86.5t-83 126t-30.5 164.5q0 97 31.5 180.5t80 139t110 97t118 62.5t108.5 27q-98 98 -98 233q0 137 101.5 224t265.5 87z" />
<glyph unicode="'" horiz-adv-x="407" d="M385 1452q29 0 46.5 -17t17.5 -44q0 -8 -5 -33q-15 -74 -65.5 -183t-69.5 -198l-8 -55h-55q8 28 14 55q19 89 19 217q0 115 16 178q9 36 32.5 58t57.5 22z" />
<glyph unicode="(" horiz-adv-x="700" d="M885 1442q-294 -242 -470.5 -576t-176.5 -700q0 -323 174 -576l-41 -32q-122 118 -200.5 296.5t-78.5 389.5q0 180 61 361.5t167 338.5t243.5 292t296.5 239z" />
<glyph unicode=")" horiz-adv-x="700" d="M504 870q0 317 -176 572l41 33q113 -100 195.5 -290t82.5 -411q0 -148 -42.5 -296t-114.5 -276t-171 -248.5t-208 -217.5t-230 -178l-24 32q300 259 473.5 592t173.5 688z" />
<glyph unicode="*" horiz-adv-x="663" d="M541 1157q25 -9 74.5 -25.5t79.5 -28.5t55 -28q26 -16 26 -45q0 -23 -15 -38t-36 -15q-13 0 -25 6q-78 45 -174 141q4 -26 14 -76.5t14.5 -83.5t4.5 -63q0 -21 -15 -35t-38 -14q-20 0 -34.5 14.5t-14.5 34.5q0 30 4 63t12.5 84t11.5 76q-96 -96 -174 -141q-12 -6 -24 -6 q-21 0 -36 15t-15 38q0 29 26 45q25 16 55 28t79.5 28.5t74.5 25.5q-25 9 -74.5 25.5t-79.5 28.5t-55 28q-26 16 -26 45q0 23 15 38t36 15q12 0 24 -6q78 -45 174 -141q-3 25 -11.5 76t-12.5 84t-4 63q0 20 14.5 34.5t34.5 14.5q23 0 38 -14t15 -35q0 -30 -4.5 -63 t-14.5 -83.5t-14 -76.5q96 96 174 141q12 6 25 6q21 0 36 -15t15 -38q0 -29 -26 -45q-25 -16 -55 -28t-79.5 -28.5t-74.5 -25.5z" />
<glyph unicode="+" horiz-adv-x="935" d="M408 903h120v-391h392v-121h-392v-391h-120v391h-392v121h392v391z" />
<glyph unicode="," horiz-adv-x="548" d="M217 213q51 0 82 -37t31 -94q0 -147 -114 -261t-267 -147l-6 31q89 33 153 101.5t64 158.5q0 95 -68 131q10 48 44 82.5t81 34.5z" />
<glyph unicode="-" horiz-adv-x="796" d="M725 530q-284 -15 -584 -112l-14 28q101 68 246 128.5t266 60.5q44 0 71 -17.5t27 -48.5q0 -23 -12 -39z" />
<glyph unicode="." horiz-adv-x="548" d="M195 -33q-45 0 -74 29t-29 74q0 55 39.5 99t97.5 44q45 0 73 -28.5t28 -73.5q0 -55 -39.5 -99.5t-95.5 -44.5z" />
<glyph unicode="/" horiz-adv-x="841" d="M373 489q69 133 190.5 376t208.5 420l86 177h127q-360 -675 -516 -973q-69 -133 -190 -376t-207 -419l-86 -177h-129q360 674 516 972z" />
<glyph unicode="0" horiz-adv-x="1050" d="M657 905q-61 0 -115.5 -28.5t-93.5 -76.5t-71 -107.5t-51 -124.5t-29 -125t-10 -111q0 -134 58.5 -209.5t150.5 -75.5q73 0 136 41t104.5 104.5t72 141.5t44 151.5t13.5 135.5q0 134 -58.5 209t-150.5 75zM725 985q145 0 235.5 -91t90.5 -249q0 -169 -84.5 -325.5 t-230 -254.5t-308.5 -98q-145 0 -235.5 91t-90.5 249q0 169 84.5 325.5t230 254.5t308.5 98z" />
<glyph unicode="1" horiz-adv-x="753" d="M793 922l-78 -39q-71 -34 -110 -90t-68 -170l-107 -430q-6 -24 -6 -46q0 -73 80 -79l86 -9l-15 -59q-114 6 -268 6l-270 -6l12 59l57 9q151 21 195 204l111 445q4 16 4 33q0 62 -68 71l-98 15l14 59q146 0 279 20q68 10 128 26.5t87 28.5l26 11z" />
<glyph unicode="2" horiz-adv-x="958" d="M319 176l-63 -39h377q167 0 270 195l35 -10l-178 -322h-727l-2 49l432 326q256 185 256 358q0 59 -39 98t-107 39q-76 0 -143.5 -51t-67.5 -121q0 -38 39 -55q-12 -27 -39.5 -42t-58.5 -15q-37 0 -61.5 21t-24.5 61q0 71 45 133.5t113 101t141.5 60.5t134.5 22 q115 0 181.5 -53t66.5 -144q0 -56 -22 -113t-53 -103t-85.5 -98t-97.5 -87t-112.5 -81t-107 -69t-102.5 -61z" />
<glyph unicode="3" horiz-adv-x="858" d="M643 750q0 54 -36 87t-113 33q-78 0 -142.5 -48t-64.5 -120q0 -50 39 -59q-37 -57 -97 -57q-38 0 -63 23t-25 65q0 70 48.5 131.5t120 99t146.5 59t134 21.5q111 0 172 -52t61 -138q0 -74 -38 -149t-98 -133t-128.5 -102t-134.5 -65v-8q143 0 214 -53.5t71 -149.5 q0 -93 -35.5 -174t-97.5 -140t-143 -105.5t-174.5 -75.5t-188.5 -43.5t-189 -14.5l19 68q88 3 174.5 21.5t169.5 57t146 91t101.5 130t38.5 169.5q0 149 -190 149q-33 0 -69 -2t-56 -4l-20 -2l2 64q75 19 150.5 56.5t143 90.5t110 126t42.5 153z" />
<glyph unicode="4" horiz-adv-x="1058" d="M983 68h-256l-74 -301q-4 -16 -4 -31q0 -56 72 -64l57 -6l-16 -59h-438l16 59l51 10q96 18 121 123l68 269h-527l-12 47l446 467q81 83 129 156t48 149q0 49 -25 82q42 47 92 47q36 0 64 -29t28 -72q0 -32 -10.5 -66t-24 -62t-40.5 -64.5t-46 -59t-55.5 -60t-54 -53.5 t-55.5 -52l-336 -314h407l70 275l168 84l-90 -359h258z" />
<glyph unicode="5" horiz-adv-x="935" d="M1024 1126l35 -8l-156 -309h-491l-97 -231q168 0 271.5 -93.5t103.5 -248.5q0 -126 -58 -248t-150 -210.5t-212 -143t-239 -54.5q-110 0 -162.5 41t-52.5 96q0 54 34 97t82 43q23 0 43.5 -11t26.5 -28q-16 -10 -25.5 -30t-9.5 -40q0 -36 26 -60t83 -24q86 0 168 50 t138.5 126t91 165.5t34.5 168.5q0 64 -25 113t-59.5 74.5t-80 41t-78 19.5t-62.5 4l-29 -2l227 530h377q136 0 246 172z" />
<glyph unicode="6" horiz-adv-x="968" d="M340 547q-61 -164 -61 -289q0 -101 42.5 -157t120.5 -56q63 0 119 41t92 101.5t57 127.5t21 123q0 84 -44 132t-118 48q-54 0 -127.5 -32.5t-101.5 -38.5zM1108 1362l4 -59q-144 -48 -272.5 -130t-221.5 -179t-158.5 -195.5t-101.5 -194.5q17 2 71 34.5t123.5 63.5 t129.5 31q103 0 171.5 -63.5t68.5 -177.5q0 -102 -45.5 -199t-118.5 -167.5t-168 -113.5t-191 -43q-142 0 -214 89t-72 231q0 122 36 240.5t98 217t144 188t173.5 159t188 125t186.5 91t169 52.5z" />
<glyph unicode="7" horiz-adv-x="993" d="M291 948h796l9 -35l-518 -577q-310 -348 -310 -588q0 -34 8 -63.5t16 -42.5l7 -13q-64 -43 -127 -43q-54 0 -87.5 34.5t-33.5 96.5q0 38 12 80t28.5 78.5t46 81.5t53 76t62 75.5t59.5 67t59.5 62.5t48.5 51l489 526h-442q-99 -6 -179 -72t-124 -153l-35 8z" />
<glyph unicode="8" horiz-adv-x="933" d="M236 207q0 -76 44.5 -122t116.5 -46q113 0 197 79.5t84 196.5q0 49 -20 99t-49 86.5t-57.5 65.5t-48.5 44l-20 15q-17 -20 -54 -61t-53.5 -60t-44 -53.5t-40.5 -58.5t-28 -56t-21 -63.5t-6 -65.5zM733 1264q-107 0 -186.5 -80.5t-79.5 -184.5q0 -28 6 -53.5t21.5 -51.5 t28.5 -45t41 -46t44 -42t51 -46q21 27 69 78.5t76.5 87t53.5 98t25 133.5q0 68 -42.5 110t-107.5 42zM702 686q7 -5 18 -13.5t39 -37.5t50 -60t39.5 -79t17.5 -97q0 -74 -29 -142.5t-78 -121t-111.5 -92t-131.5 -60t-135 -20.5q-130 0 -214.5 63t-84.5 175q0 66 23 120.5 t64 96.5t84 76t97.5 78.5t89.5 84.5q-81 77 -116 134t-35 127q0 122 71 221.5t177.5 151.5t220.5 52q123 0 200.5 -57.5t77.5 -157.5q0 -77 -24 -138t-64.5 -102t-82 -71t-89.5 -65t-74 -66z" />
<glyph unicode="9" horiz-adv-x="968" d="M694 408q62 167 62 288q0 101 -43 157t-121 56q-63 0 -119 -41t-92 -101.5t-57 -127.5t-21 -123q0 -84 44 -132t118 -48q54 0 127.5 33t101.5 39zM-74 -408l-4 60q144 48 272.5 130t221.5 178.5t158.5 195t101.5 194.5q-17 -2 -71 -34.5t-123.5 -63.5t-129.5 -31 q-103 0 -171 64t-68 178q0 136 76 257.5t197 193t249 71.5q143 0 215 -88.5t72 -230.5t-48.5 -278.5t-129.5 -246t-184 -205t-215.5 -164t-219 -114.5t-199.5 -66z" />
<glyph unicode=":" horiz-adv-x="548" d="M195 -33q-45 0 -74 29t-29 74q0 55 39.5 99t97.5 44q45 0 73 -28.5t28 -73.5q0 -55 -39.5 -99.5t-95.5 -44.5zM328 602q-45 0 -74 29t-29 74q0 55 39.5 99t97.5 44q45 0 73 -29t28 -74q0 -55 -39 -99t-96 -44z" />
<glyph unicode=";" horiz-adv-x="548" d="M328 602q-45 0 -74 29t-29 74q0 55 39.5 99t97.5 44q45 0 73 -29t28 -74q0 -55 -39 -99t-96 -44zM217 213q51 0 82 -37t31 -94q0 -147 -114 -261t-267 -147l-6 31q89 33 153 101.5t64 158.5q0 95 -68 131q10 48 44 82.5t81 34.5z" />
<glyph unicode="&#x3c;" horiz-adv-x="1136" d="M1001 8l-882 385v117l882 385v-125l-739 -319l739 -318v-125z" />
<glyph unicode="=" horiz-adv-x="935" d="M920 186h-904v117h904v-117zM920 717v-117h-904v117h904z" />
<glyph unicode="&#x3e;" horiz-adv-x="1116" d="M1001 395l-882 -387v125l739 318l-739 319v125l882 -385v-115z" />
<glyph unicode="?" horiz-adv-x="821" d="M383 385h-39q-47 73 -47 180q0 65 28.5 121.5t73.5 97.5t100 79t110 74.5t100 75t73.5 89t28.5 108.5q0 57 -51 107.5t-137 50.5q-65 0 -103.5 -25t-38.5 -69q0 -16 3.5 -30t7.5 -20l4 -7q-38 -15 -78 -15q-43 0 -73 26t-30 68q0 58 37 97t87 54t108 15q137 0 246.5 -88 t109.5 -211q0 -71 -18 -130.5t-48.5 -102.5t-70 -79.5t-83.5 -66t-88 -57.5t-83.5 -58t-70 -63t-48.5 -78t-18 -98q0 -25 8 -45zM246 -33q-45 0 -74 29t-29 74q0 55 40 99t98 44q45 0 72.5 -28.5t27.5 -73.5q0 -55 -39.5 -99.5t-95.5 -44.5z" />
<glyph unicode="@" horiz-adv-x="1607" d="M989 211q-96 0 -96 88q0 18 3 37.5t9 40t10.5 34t12.5 34.5t10 26h-8q-117 -260 -281 -260q-67 0 -101 47.5t-34 124.5q0 121 61.5 240t164 196.5t212.5 77.5q63 0 119 -45q9 28 32.5 57t55.5 29q33 0 60 -23q-43 -49 -127 -258t-84 -311q0 -25 6.5 -37t29.5 -12 q63 0 124 15t119 50.5t101.5 87t70 131t26.5 177.5q0 195 -141.5 322.5t-393.5 127.5q-109 0 -207.5 -33t-173 -89.5t-135.5 -130t-100 -156.5t-59.5 -167.5t-20.5 -164.5q0 -95 21.5 -180t70.5 -160.5t121.5 -130t181 -86t242.5 -31.5q136 0 246 38.5t163 84.5q3 -6 3 -14 q0 -31 -40.5 -64t-104.5 -59t-152.5 -43t-176.5 -17q-335 0 -529 175.5t-194 484.5q0 106 33.5 217.5t105.5 219.5t171 192t243 136t310 52q136 0 251 -41t192.5 -111.5t121 -164.5t43.5 -199q0 -126 -51 -233t-134 -176t-188 -107.5t-215 -38.5zM705 301q46 0 98.5 51 t95.5 127.5t76.5 154t50.5 140.5q-28 66 -104 66q-77 0 -144.5 -65.5t-105 -163.5t-37.5 -197q0 -61 15 -87t55 -26z" />
<glyph unicode="A" horiz-adv-x="1378" d="M903 621l-53 602l-334 -602h387zM877 1444l137 22l116 -1276q4 -57 31 -84t86 -36l66 -11l-15 -59q-111 6 -256 6l-317 -6l14 59l43 11q163 32 152 184l-21 283h-436l-147 -281q-2 -4 -10 -18.5t-10.5 -18.5t-8.5 -16t-8 -17t-5.5 -14.5t-5 -16t-2.5 -14.5t-1 -16 q0 -24 20 -36.5t63 -18.5l66 -11l-14 -59q-148 6 -244 6l-246 -6l15 59l43 11q47 11 83.5 30.5t65.5 51t48 60t46 77.5z" />
<glyph unicode="B" horiz-adv-x="1218" d="M821 1364q-61 0 -108 -14l-131 -570q24 4 63 4q69 0 137 -12q118 15 201.5 104.5t83.5 233.5q0 108 -62.5 181t-183.5 73zM567 715l-108 -459q-13 -52 -13 -82q0 -55 40 -79.5t126 -24.5q74 0 139 19.5t116.5 57t81.5 99t30 139.5t-26 139t-64.5 96.5t-88.5 59t-93 31.5 t-82 8zM602 1427q67 0 157.5 3.5t149.5 3.5q154 0 249 -85.5t95 -230.5q0 -74 -27.5 -137t-68 -103t-92.5 -70.5t-94 -45t-80 -21.5q52 -13 100 -40.5t91 -70t68.5 -106t25.5 -139.5q0 -95 -42 -170t-114.5 -121t-164.5 -70t-198 -24q-200 6 -366 6q-77 0 -145 -1.5 t-97 -2.5l-29 -2l15 59l43 11q85 20 128.5 65.5t63.5 134.5l219 961q9 45 9 59q0 35 -22.5 50.5t-72.5 23.5l-65 10l14 60q70 -7 250 -7z" />
<glyph unicode="C" horiz-adv-x="1390" d="M1470 1229q0 -96 -56 -143.5t-136 -47.5q-20 0 -36.5 4t-23.5 8l-6 3q56 56 56 137q0 74 -78 132t-209 58q-128 0 -236.5 -45.5t-185 -124t-130.5 -183.5t-79.5 -223.5t-25.5 -244.5q0 -235 101 -372.5t267 -137.5q371 0 543 311l53 -14l-133 -301q-50 0 -116 -19.5 t-160.5 -39t-212.5 -19.5q-257 0 -402 149.5t-145 401.5q0 197 72.5 371.5t200 300.5t310 199t392.5 73q171 0 273.5 -68.5t102.5 -164.5z" />
<glyph unicode="D" horiz-adv-x="1646" d="M698 1350l-249 -1094q-13 -52 -13 -82q0 -55 40 -79.5t126 -24.5q172 0 320.5 49.5t259.5 141.5t175 233.5t64 316.5q0 254 -143.5 403.5t-421.5 149.5q-86 0 -158 -14zM287 6q-77 0 -145 -1.5t-97 -2.5l-29 -2l15 59l43 11q85 20 128.5 65.5t63.5 134.5l219 961 q9 45 9 59q0 35 -22.5 50.5t-72.5 23.5l-65 10l14 60q60 -7 240 -7q51 0 162 3.5t149 3.5q171 0 310.5 -46t229.5 -125.5t138.5 -185t48.5 -225.5q0 -258 -123 -451.5t-348.5 -297t-525.5 -103.5q-58 0 -169.5 3t-172.5 3z" />
<glyph unicode="E" d="M598 70q68 0 123.5 9.5t97.5 30.5t72.5 42t58 55.5t43 58t37.5 62.5l43 -6l-100 -322q-510 6 -686 6l-271 -6l15 59l43 11q85 20 128.5 65.5t63.5 134.5l219 961q9 45 9 59q0 35 -22.5 50.5t-72.5 23.5l-65 10l14 60q107 -7 287 -7l653 7l-82 -306h-41q0 124 -66 180 t-233 56q-98 0 -159 -14l-138 -576h170q72 0 122 39.5t89 118.5l39 80h53q-50 -145 -77 -262q-13 -56 -22 -112.5t-12 -85.5l-3 -28h-51l-3 51q-3 119 -122 119h-203l-105 -438q-12 -48 -12 -82q0 -55 40 -79.5t126 -24.5z" />
<glyph unicode="F" d="M545 676l-109 -473q-8 -40 -8 -60q0 -35 22 -50t72 -23l66 -11l-15 -59q-110 6 -286 6q-77 0 -145 -1.5t-97 -2.5l-29 -2l15 59l43 11q85 20 128.5 65.5t63.5 134.5l219 961q9 45 9 59q0 35 -22.5 50.5t-72.5 23.5l-65 10l14 60q107 -7 287 -7l653 7l-82 -306h-41 q0 124 -66 180t-233 56q-98 0 -159 -14l-142 -594h170q72 0 122.5 39.5t88.5 117.5l39 80h53q-50 -145 -77 -262q-13 -56 -22 -112.5t-12 -84.5l-3 -28h-52l-2 51q-3 119 -122 119h-203z" />
<glyph unicode="G" horiz-adv-x="1509" d="M1364 1071l-33 4q0 47 -5.5 84t-25.5 81t-54 73t-97.5 49t-149.5 20q-122 0 -230.5 -44t-189 -122t-139 -181t-88.5 -224.5t-30 -249.5q0 -228 114.5 -371t298.5 -143q140 0 234.5 52t122.5 163l43 170q6 18 6 35q0 37 -24 56t-81 26l-80 10l15 59h528l-12 -59l-31 -10 q-116 -39 -164 -197l-75 -262q-39 0 -96.5 -19t-111.5 -42.5t-140.5 -42.5t-178.5 -19q-274 0 -423.5 149t-149.5 443q0 184 73.5 350.5t199.5 288t303.5 193t377.5 71.5q91 0 218 -28.5t177 -28.5z" />
<glyph unicode="H" horiz-adv-x="1689" d="M1448 70l65 -11l-14 -59q-111 6 -287 6q-77 0 -144.5 -1.5t-96.5 -2.5l-29 -2l14 59l43 11q85 20 129 65.5t64 134.5l98 430h-741l-113 -497q-8 -40 -8 -60q0 -35 22 -50t72 -23l66 -11l-15 -59q-110 6 -286 6q-77 0 -145 -1.5t-97 -2.5l-29 -2l15 59l43 11 q85 20 128.5 65.5t63.5 134.5l219 961q9 45 9 59q0 35 -22.5 50.5t-72.5 23.5l-65 10l14 60q107 -7 287 -7q75 0 142.5 1.5t97.5 3.5l30 2l-14 -60l-43 -10q-85 -20 -129 -66t-64 -135l-86 -379h740l102 447q8 40 8 59q0 35 -22 50.5t-72 23.5l-65 10l14 60q107 -7 287 -7 q75 0 142.5 1.5t97.5 3.5l30 2l-14 -60l-43 -10q-85 -20 -129 -66t-64 -135l-219 -960q-8 -40 -8 -60q0 -35 22 -50t72 -23z" />
<glyph unicode="I" horiz-adv-x="763" d="M522 70l66 -11l-15 -59q-110 6 -286 6q-77 0 -145 -1.5t-97 -2.5l-29 -2l15 59l43 11q85 20 128.5 65.5t63.5 134.5l219 961q9 45 9 59q0 35 -22.5 50.5t-72.5 23.5l-65 10l14 60q107 -7 287 -7q75 0 142.5 1.5t97.5 3.5l30 2l-14 -60l-43 -10q-85 -20 -129 -66t-64 -135 l-219 -960q-8 -40 -8 -60q0 -35 22 -50t72 -23z" />
<glyph unicode="J" horiz-adv-x="1114" d="M1067 1401l-180 -750l160 31v-90l-179 -35l-116 -444q-31 -117 -80.5 -214.5t-118.5 -174t-163.5 -119.5t-205.5 -43q-87 0 -136.5 35t-49.5 96q0 45 32.5 70.5t69.5 25.5q19 0 27 -4q-10 -27 -10 -51q0 -43 30 -72t89 -29q42 0 82.5 19.5t84 63.5t84 129t70.5 204 l121 477l-277 -53l-12 94l309 54l168 686h-8q-67 -76 -174 -76q-48 0 -100 24.5t-103.5 49t-99.5 24.5q-58 0 -98.5 -37t-40.5 -96q0 -90 84 -90q21 0 39.5 6.5t30 15t19.5 17.5t11 15l4 7q59 -29 59 -98q0 -43 -36 -74.5t-107 -31.5q-72 0 -121 54.5t-49 131.5 q0 115 96.5 203t221.5 88q48 0 89 -16t64.5 -35.5t56 -35.5t66.5 -16q35 0 70.5 23t65.5 55.5l60 65t66 55.5t72 23q30 0 56.5 -9t43 -22.5t28.5 -26.5t18 -22l5 -9l-12 -53q-49 37 -110 37q-53 0 -66 -53z" />
<glyph unicode="K" horiz-adv-x="1458" d="M856 739l258 -456q57 -101 92 -160t95 -145.5t110 -138t124 -111.5t150.5 -92t177 -54t214.5 -22q190 0 329.5 46.5t159.5 125.5q9 4 21 4q14 0 26.5 -9.5t12.5 -27.5q0 -54 -66.5 -97.5t-164.5 -66.5t-191.5 -35t-165.5 -12q-216 0 -388.5 46t-305.5 140.5t-233.5 224.5 t-186.5 312l-150 313q-55 119 -170 119q-44 0 -72 -16l-96 -424q-8 -40 -8 -60q0 -35 22 -50t72 -23l66 -11l-15 -59q-110 6 -286 6q-77 0 -145 -1.5t-97 -2.5l-29 -2l15 59l43 11q85 20 128.5 65.5t63.5 134.5l219 961q9 45 9 59q0 35 -22.5 50.5t-72.5 23.5l-65 10l14 60 q107 -7 287 -7q75 0 142.5 1.5t97.5 3.5l30 2l-14 -60l-43 -10q-85 -20 -129 -66t-64 -135l-100 -436h162l512 543q22 22 22 47q0 39 -55 47l-59 10l14 60q164 -7 281 -7l256 7l-15 -60l-69 -10q-161 -23 -285 -150z" />
<glyph unicode="L" horiz-adv-x="1142" d="M522 70q113 0 199.5 18t148.5 54.5t104.5 80t80.5 105.5l43 -6l-101 -322q-501 4 -710 6q-77 0 -145 -1.5t-97 -2.5l-29 -2l15 59l43 11q85 20 128.5 65.5t63.5 134.5l219 961q9 45 9 59q0 35 -22.5 50.5t-72.5 23.5l-65 10l14 60q107 -7 287 -7q75 0 142.5 1.5t97.5 3.5 l30 2l-14 -60l-43 -10q-85 -20 -129 -66t-64 -135l-219 -960q-8 -40 -8 -60q0 -73 94 -73z" />
<glyph unicode="M" horiz-adv-x="1994" d="M209 295l289 936q8 31 8 59q0 34 -21 48t-73 24l-66 12l14 60q176 -7 336 -7q-4 -16 -4 -36q0 -50 13 -103l237 -1055l711 1004q91 128 108 190q96 0 182.5 1.5t124.5 3.5l39 2l-14 -60l-43 -10q-82 -20 -132.5 -75t-59.5 -126l-138 -946q-4 -32 -4 -47q0 -90 99 -100 l96 -11l-15 -59q-159 8 -309 8q-72 0 -149.5 -2t-118.5 -4l-41 -2l14 59l43 11q97 23 147.5 73t67.5 152l136 831l-803 -1136l-64 -8l-264 1130l-246 -823q-26 -89 -26 -129t25 -61.5t83 -28.5l88 -11l-14 -59q-141 8 -309 8q-49 0 -102.5 -2t-81.5 -4l-29 -2l14 59l43 11 q83 20 130 71t79 154z" />
<glyph unicode="N" horiz-adv-x="1669" d="M1391 1364l-88 10l14 60q149 -7 315 -7q57 0 113 1.5t83 3.5l27 2l-14 -60l-43 -10q-85 -20 -128.5 -66t-63.5 -135l-258 -1173l-64 -8l-704 1189l-199 -856q-29 -136 -29 -155q0 -79 111 -90l92 -11l-14 -59q-172 6 -299 6l-226 -6l15 59l43 11q85 20 128.5 65t63.5 135 l219 961q9 36 9 59q0 35 -22.5 50.5t-72.5 23.5l-65 10l14 60q115 -7 330 -7q0 -57 43 -131l602 -1024l184 916q11 50 11 67q0 53 -31.5 77t-95.5 32z" />
<glyph unicode="O" horiz-adv-x="1556" d="M754 47q117 0 217 54.5t168 141.5t116.5 196.5t70.5 219.5t22 211q0 239 -123.5 375.5t-309.5 136.5q-117 0 -217 -54.5t-167.5 -141.5t-116 -196.5t-70.5 -219.5t-22 -211q0 -239 123 -375.5t309 -136.5zM1014 1462q240 0 389 -147.5t149 -403.5q0 -148 -45 -290 t-128.5 -259t-193 -206.5t-247 -139t-283.5 -49.5q-240 0 -389 147.5t-149 403.5q0 148 45 290t128.5 259t193 206.5t247 139t283.5 49.5z" />
<glyph unicode="P" horiz-adv-x="1222" d="M772 715q138 0 230 105t92 247q0 131 -79.5 214t-197.5 83q-61 0 -108 -14l-142 -602q24 0 91 -16.5t114 -16.5zM635 1427q41 0 119 3.5t133 3.5q177 0 290 -99.5t113 -267.5q0 -95 -39 -178t-103 -140t-146 -89.5t-168 -32.5q-58 0 -105.5 9t-73.5 20.5t-55 20.5t-53 9 l-111 -483q-8 -40 -8 -60q0 -35 22 -50t72 -23l66 -11l-15 -59q-110 6 -286 6q-77 0 -145 -1.5t-97 -2.5l-29 -2l15 59l43 11q85 20 128.5 65.5t63.5 134.5l219 961q9 45 9 59q0 35 -22.5 50.5t-72.5 23.5l-65 10l14 60q107 -7 287 -7z" />
<glyph unicode="Q" horiz-adv-x="1562" d="M1612 -174q58 0 95.5 -34t37.5 -95q0 -56 -34 -103t-89 -76.5t-116.5 -52t-124 -34t-104 -16.5t-63.5 -5q-104 0 -230.5 43.5t-243.5 105t-231 123t-224.5 105t-190.5 43.5q-74 0 -131 -31t-57 -88q0 -25 11.5 -41t33.5 -16q12 0 20 4q4 -12 4 -23q0 -26 -19 -40.5 t-50 -14.5q-37 0 -59.5 29.5t-22.5 68.5q0 40 16 74t60.5 65t77 51t114 48t120 40t142.5 42q100 29 152.5 45t150 49.5t153.5 59.5t139 70.5t132.5 87t107 104t88.5 127t52 150t21 179.5q0 239 -123 375.5t-309 136.5q-114 0 -224 -57t-190.5 -149.5t-130 -214.5t-49.5 -246 q0 -49 5.5 -93t21.5 -90.5t41.5 -79.5t68 -54t98.5 -21q58 0 106.5 23t78.5 59.5t46.5 80.5t16.5 89q0 110 -66 168q37 37 95 37q59 0 97 -40.5t38 -103.5q0 -74 -32 -140t-84.5 -112t-118.5 -79.5t-135.5 -49.5t-135.5 -16q-90 0 -158 27.5t-108.5 77t-60 113.5t-19.5 142 q0 132 51 257.5t139.5 223.5t202 173t244.5 115t260 40q240 0 389 -147t149 -404q0 -115 -22 -214.5t-55.5 -176.5t-93.5 -144t-115 -114t-143 -90.5t-153.5 -70t-171.5 -55.5t-172 -44t-177 -39q-224 -51 -308 -76l4 -6q79 21 152 21q90 0 212 -41.5t241.5 -100.5t234 -118 t218 -100.5t165.5 -41.5q86 0 143.5 40.5t57.5 123.5q0 76 -45 133q37 29 86 29z" />
<glyph unicode="R" horiz-adv-x="1359" d="M807 1364q-62 0 -109 -14l-149 -654q64 41 143 41q34 0 67.5 -8t50.5 -16l17 -8q113 43 184.5 142.5t71.5 246.5q0 114 -78 192t-198 78zM901 211l-96 270q-62 174 -191 174q-21 0 -40 -3.5t-28 -7.5l-9 -3l-101 -438q-8 -40 -8 -60q0 -35 22 -50t72 -23l66 -11l-15 -59 q-110 6 -286 6q-77 0 -145 -1.5t-97 -2.5l-29 -2l15 59l43 11q85 20 128.5 65.5t63.5 134.5l219 961q9 45 9 59q0 35 -22.5 50.5t-72.5 23.5l-65 10l14 60q107 -7 287 -7q48 0 119 3.5t125 3.5q177 0 294 -94t117 -246q0 -84 -28 -154.5t-70 -115t-99 -78.5t-105.5 -51 t-98.5 -27q60 -38 115 -172l88 -213q52 -128 110 -229.5t141.5 -196.5t183 -158t234 -101t293.5 -38q190 0 330 46.5t160 125.5q8 4 20 4q14 0 26.5 -9.5t12.5 -27.5q0 -54 -66.5 -97.5t-164.5 -66.5t-191.5 -35t-165.5 -12q-437 0 -710 178.5t-404 544.5z" />
<glyph unicode="S" horiz-adv-x="997" d="M1110 1419l-96 -319h-60q9 45 9 71q0 93 -68.5 152t-192.5 59q-106 0 -170.5 -62.5t-64.5 -154.5q0 -61 24 -115t63 -95.5t85.5 -83t93 -88t85.5 -98.5t63 -126t24 -160q0 -82 -31.5 -158.5t-91 -138t-156 -98.5t-216.5 -37q-76 0 -190 31t-185 31l61 333h51v-32 q0 -281 283 -281q139 0 226 73t87 185q0 65 -24 124t-63 105t-85.5 91.5t-93 93.5t-85.5 99t-63 119.5t-24 145.5q0 159 118 268t314 109q76 0 190 -21.5t183 -21.5z" />
<glyph unicode="T" horiz-adv-x="1394" d="M1280 1354l-279 -4l-266 -1147q-8 -40 -8 -60q0 -35 22 -50t72 -23l66 -11l-15 -59q-110 6 -286 6q-77 0 -145 -1.5t-97 -2.5l-29 -2l15 59l43 11q85 20 128.5 65.5t63.5 134.5l250 1078h-307q-77 0 -117.5 -25.5t-40.5 -62.5q0 -30 21 -62q-9 -17 -33 -27t-51 -10 q-40 0 -67 21t-27 65t26 75.5t74.5 48.5t99 25.5t119.5 12.5l754 43q81 4 115 23.5t34 58.5q0 19 -7.5 42t-16.5 32q29 16 73 16q43 0 80 -25t37 -73q0 -169 -301 -172z" />
<glyph unicode="U" horiz-adv-x="1628" d="M614 1163l-125 -534q-28 -128 -28 -215q0 -344 350 -344q105 0 182.5 32t132.5 100.5t91.5 159.5t66.5 224l146 645q8 40 8 59q0 35 -22.5 50.5t-72.5 23.5l-65 10l14 60q119 -9 250 -9q58 0 117 2.5t89 4.5l30 2l-15 -60l-43 -10q-85 -20 -128.5 -66t-63.5 -135 l-131 -585q-19 -82 -39 -148t-48 -131t-61.5 -113.5t-79.5 -90.5t-101 -69t-126 -42t-156 -15q-235 0 -373.5 106.5t-138.5 319.5q0 82 25 191l145 645q9 45 9 59q0 35 -22.5 50.5t-72.5 23.5l-65 10l14 60q107 -7 287 -7q75 0 142.5 1.5t97.5 3.5l30 2l-14 -60l-43 -10 q-85 -20 -129 -66t-64 -135z" />
<glyph unicode="V" horiz-adv-x="1511" d="M1683 1374l-43 -10q-65 -15 -116.5 -60t-106.5 -141l-690 -1188l-63 -8l-228 1221q-19 97 -46.5 131.5t-94.5 44.5l-66 10l15 60q109 -9 248 -9q68 0 149 2.5t127 4.5l47 2l-14 -60l-43 -10q-70 -17 -97.5 -48t-27.5 -89q0 -23 4 -51l151 -930l525 942q35 65 35 102 q0 35 -21 50.5t-70 23.5l-65 10l14 60q128 -7 267 -7q71 0 127.5 1.5t77.5 3.5l20 2z" />
<glyph unicode="W" horiz-adv-x="2230" d="M2191 1427l226 5l-15 -58l-43 -10q-65 -15 -111.5 -58.5t-107.5 -142.5l-735 -1188l-64 -8l-67 1145l-615 -1137l-63 -8l-158 1227q-11 80 -43 120t-100 50l-66 10l15 60q201 -9 262 -9l309 9l-14 -60l-43 -10q-58 -12 -97.5 -46.5t-39.5 -90.5q0 -15 4 -51l102 -926 l471 938q33 68 33 102q0 37 -23 52t-67 22l-66 10l15 60q119 -7 315 -7l76 -1183l540 919q45 83 45 127q0 35 -20 50.5t-70 23.5l-65 10l14 60q137 -7 266 -7z" />
<glyph unicode="X" horiz-adv-x="1507" d="M326 1364l-50 10l15 60q112 -7 280 -7q88 0 158 1.5t97 3.5l26 2l-14 -60l-39 -10q-53 -13 -84 -33t-31 -59q0 -10 3.5 -23.5t7 -22.5t10 -24t8.5 -20l164 -373l329 369q80 89 80 131q0 43 -82 55l-65 10l14 60q90 -7 285 -7q64 0 121 1.5t83 3.5l25 2l-20 -60l-43 -10 q-67 -15 -127.5 -58.5t-151.5 -142.5l-407 -438l253 -553q23 -48 60 -69t100 -33l49 -11l-14 -59q-113 6 -281 6q-88 0 -158 -1.5t-96 -2.5l-26 -2l14 59l39 11q53 13 84 33t31 59q0 10 -3.5 23.5t-7 22.5t-10 24t-8.5 20l-156 352l-311 -348q-80 -89 -80 -131q0 -43 82 -55 l66 -11l-15 -59q-89 6 -284 6q-64 0 -121.5 -1.5t-82.5 -2.5l-26 -2l21 59l43 11q67 15 127 58t151 142l390 418l-263 574q-23 48 -60 69t-99 33z" />
<glyph unicode="Y" horiz-adv-x="1423" d="M844 614l-94 -411q-9 -45 -9 -60q0 -35 22.5 -50t72.5 -23l65 -11l-14 -59q-111 6 -287 6q-77 0 -144.5 -1.5t-96.5 -2.5l-29 -2l14 59l43 11q85 20 129 65.5t64 134.5l84 365l-52 285q-15 80 -25.5 130.5t-25.5 106t-31.5 87t-39 59.5t-51.5 39.5t-66 11.5t-62.5 -11.5 t-54.5 -37.5l-10 47q36 46 92.5 78t120.5 32q49 0 90 -14.5t71 -38t54.5 -62t40 -76t29.5 -91.5t21.5 -97.5t16.5 -103.5l39 -268q6 15 24 55.5t55 112t80.5 146.5t102 154.5t118 141.5t130.5 101.5t137 39.5q63 0 101.5 -32t38.5 -91q0 -43 -35.5 -75.5t-71.5 -32.5 q-12 0 -18 2q2 8 2 18q0 26 -19 46t-61 20q-70 0 -164.5 -90t-175 -212t-141 -233t-80.5 -168z" />
<glyph unicode="Z" horiz-adv-x="1329" d="M1417 1434l17 -45l-1178 -1305l397 6q73 1 134.5 11.5t107.5 25t88.5 42.5t71 52.5t63 67t55.5 74l57 85.5q7 11 11 17l49 -12l-170 -453h-1122l-8 29l1184 1319l-447 -13q-74 -2 -134.5 -17t-100.5 -36.5t-73.5 -56t-53.5 -66t-41 -74.5l-50 7l119 374h58q0 -1 1 -3.5 t6.5 -8t14 -9.5t27 -7.5t43.5 -3.5h874z" />
<glyph unicode="[" horiz-adv-x="864" d="M1004 1475q24 -21 24 -54q0 -32 -20 -56t-52.5 -36t-66 -18t-68.5 -6q-29 0 -68.5 3t-64.5 6l-24 3l-406 -1602q54 13 148 13q74 0 121.5 -27t47.5 -70q0 -29 -18 -48.5t-43 -24.5q-46 51 -156 77.5t-256 26.5l433 1706q146 0 270.5 28t198.5 79z" />
<glyph unicode="\" horiz-adv-x="923" d="M563 489q4 -133 17.5 -376t24.5 -419l11 -177h-127q-10 674 -24 972q-5 133 -19 376t-25 420l-11 177h127q10 -675 26 -973z" />
<glyph unicode="]" horiz-adv-x="866" d="M389 1475q46 -51 157 -79t257 -28l-434 -1706q-147 0 -270.5 -26.5t-196.5 -77.5q-10 5 -18.5 20t-8.5 31q0 43 33.5 71.5t73 38t81.5 9.5q30 0 74.5 -3t73.5 -7l29 -3l405 1602q-94 -12 -160 -12q-61 0 -109 22t-48 68q0 58 61 80z" />
<glyph unicode="^" horiz-adv-x="1138" d="M633 1411l368 -745h-139l-293 596l-293 -596h-139l371 745h125z" />
<glyph unicode="_" horiz-adv-x="1159" d="M1057 -135l-35 -133h-1032l35 133h1032z" />
<glyph unicode="`" horiz-adv-x="714" d="M266 1370q0 25 14.5 42.5t30.5 21.5q191 -215 404 -363l-10 -27q-44 11 -115 44.5t-144.5 78t-126.5 100.5t-53 103z" />
<glyph unicode="a" horiz-adv-x="978" d="M766 102q78 0 190 185l31 -21q-20 -47 -48.5 -94.5t-67.5 -96.5t-88.5 -79.5t-100.5 -30.5q-107 0 -107 117q0 26 4 52.5t13 56t14 45t17.5 47t13.5 34.5h-8q-18 -37 -29 -59.5t-35 -63.5t-44.5 -68t-52 -60.5t-62.5 -53t-72 -33.5t-84 -14q-90 0 -135 64.5t-45 169.5 q0 122 49 249t128.5 226t188 162t219.5 63q37 0 69.5 -11t49 -22t39.5 -30q12 38 42.5 77t76.5 39q44 0 78 -30q-33 -38 -99.5 -183.5t-125 -322.5t-58.5 -269q0 -45 39 -45zM326 86q61 0 130.5 70t126.5 173.5t101.5 209t67.5 190.5q-39 92 -138 92q-102 0 -192.5 -89.5 t-141.5 -223.5t-51 -268q0 -82 21.5 -118t75.5 -36z" />
<glyph unicode="b" horiz-adv-x="966" d="M702 838q-82 0 -192.5 -117t-190 -279t-79.5 -280q0 -62 25.5 -90.5t80.5 -28.5q73 0 145 48.5t126.5 124.5t97 165.5t64.5 176t22 151.5q0 66 -23 97.5t-76 31.5zM707 1536l-359 -946h8q32 61 71 117t93 115.5t120.5 95.5t133.5 36q94 0 144.5 -52.5t50.5 -153.5 q0 -99 -34.5 -208.5t-98 -210t-144.5 -182.5t-183.5 -131t-205.5 -49q-110 0 -160.5 65t-50.5 175q0 116 55 258l299 807q15 45 15 67q0 32 -31.5 45t-99.5 13v45q22 1 60 4.5t138 27.5t179 62z" />
<glyph unicode="c" horiz-adv-x="808" d="M731 715q12 34 12 57q0 84 -104 84q-69 0 -130.5 -40.5t-106 -106.5t-77.5 -147.5t-49 -165t-16 -158.5q0 -74 34.5 -114t96.5 -40q89 0 169 57.5t140 139.5l31 -23q-19 -38 -41.5 -74t-58 -77t-75.5 -70.5t-94 -49.5t-112 -20q-258 0 -258 248q0 99 32 204.5t92.5 200 t139 170t180 120t207.5 44.5q61 0 105.5 -27.5t44.5 -84.5t-40 -94t-93 -37q-17 0 -29 4z" />
<glyph unicode="d" horiz-adv-x="1077" d="M336 88q65 0 144 64t145.5 161t111.5 222.5t45 236.5q0 46 -22 72t-60 26q-62 0 -124 -33t-112.5 -87.5t-94.5 -124t-74 -142.5t-47 -143t-17 -125q0 -127 105 -127zM1257 1536l-423 -1200q-52 -143 -52 -191q0 -43 41 -43q27 0 58.5 19.5t64.5 58t50 60t44 59.5l31 -23 q-27 -53 -59.5 -101t-77 -98.5t-98 -81t-107.5 -30.5q-51 0 -75.5 25.5t-24.5 93.5q0 15 1.5 31t6.5 35.5t8 32.5t11 36.5t11 32.5t12 35t11 30h-8q-21 -41 -46 -81.5t-66 -91.5t-85 -88t-103 -63t-120 -26q-190 0 -190 209q0 82 24.5 173t67.5 176.5t105.5 164t134 137 t157.5 93t172 34.5q47 0 83.5 -16t53.5 -37l127 371q15 45 15 67q0 32 -31.5 45t-99.5 13v45q22 1 60 4.5t137.5 27.5t178.5 62z" />
<glyph unicode="e" horiz-adv-x="827" d="M709 799q0 35 -18.5 54t-51.5 19q-60 0 -117 -40.5t-99.5 -105t-70 -120.5t-47.5 -112q404 119 404 305zM866 813q0 -118 -142 -208.5t-435 -166.5q-31 -108 -31 -200q0 -65 34 -109.5t107 -44.5q87 0 174 64t134 133l30 -23q-15 -26 -31 -51t-55.5 -72.5t-81 -81 t-103.5 -60t-126 -26.5q-122 0 -186 65t-64 183q0 89 27 189t81.5 197.5t127.5 176.5t173 127.5t210 48.5q81 0 119 -41.5t38 -99.5z" />
<glyph unicode="f" horiz-adv-x="626" d="M1270 1460q0 -50 -38.5 -84.5t-90.5 -34.5q-36 0 -70 17q19 34 19 63q0 84 -152 84q-122 0 -215.5 -114.5t-167.5 -350.5l-39 -127h279l-43 -102h-269l-170 -508q-29 -88 -59.5 -169t-73 -176.5t-86.5 -175t-100.5 -156.5t-114.5 -130t-128 -85t-142 -32 q-85 0 -125.5 35.5t-40.5 87.5q0 55 36 83t83 28l26 -2q-12 -27 -12 -51q0 -38 25 -60t73 -22q122 0 212.5 128.5t168.5 387.5l252 835h-155l14 50l170 34l18 56q58 175 155.5 314t235.5 225.5t291 86.5q115 0 174.5 -38t59.5 -97z" />
<glyph unicode="g" horiz-adv-x="897" d="M547 899q-45 0 -82.5 -28.5t-61.5 -72t-40.5 -97.5t-23.5 -103t-7 -90q0 -92 28 -139t80 -47q56 0 100.5 42t69 105t37 126.5t12.5 117.5q0 186 -112 186zM319 -463q77 0 136 18t90.5 47.5t47 61.5t15.5 66q0 65 -44.5 100.5t-153.5 67.5q-33 10 -44.5 13.5t-41.5 13.5 t-42 15.5t-36.5 16.5t-35 20t-26.5 23.5t-23 28.5t-12.5 32.5t-5.5 38.5q0 75 56.5 120.5t130.5 55.5q-66 20 -106 75.5t-40 142.5q0 112 54.5 218t150 174t203.5 68q50 0 84 -12.5t69 -44.5q58 -12 105 -12q84 0 143 41q35 -26 35 -66q0 -36 -24 -59t-68 -23q-39 0 -91 28 t-59 30q21 -47 21 -121q0 -108 -49.5 -208t-136 -165t-187.5 -74q-151 -26 -151 -108q0 -22 11.5 -38.5t44 -31.5t55 -22.5t78.5 -24.5q9 -3 13 -4q147 -42 209 -105.5t62 -162.5q0 -135 -129 -222.5t-334 -87.5q-172 0 -275.5 73t-103.5 192q0 77 46 122.5t112 45.5 q30 0 52.5 -15t25.5 -37q-41 -7 -69 -35.5t-28 -80.5q0 -77 71.5 -133t194.5 -56z" />
<glyph unicode="h" horiz-adv-x="1040" d="M768 1536q-129 -339 -244.5 -643t-156.5 -411t-43 -113h8q56 112 120.5 212t139 186t156 136.5t155.5 50.5q58 0 83.5 -25.5t25.5 -76.5q0 -73 -39 -180l-123 -348q-55 -154 -55 -193q0 -29 30 -29q58 0 176 168l31 -22q-28 -51 -59.5 -96t-73 -89t-91 -70t-99.5 -26 q-39 0 -58.5 18t-19.5 60q0 81 69 279l123 350q25 73 25 102q0 41 -31 41q-73 0 -174.5 -100.5t-186 -236t-144.5 -277t-60 -219.5q-25 -17 -74 -17q-36 0 -57 19.5t-21 52.5q0 22 11 59l397 1174q14 42 14 67q0 32 -31.5 45t-99.5 13v45q22 1 60 4.5t138 27.5t179 62z" />
<glyph unicode="i" horiz-adv-x="571" d="M561 952l-242 -628q-55 -146 -55 -193q0 -29 27 -29q35 0 118.5 73t120.5 126l31 -20q-36 -65 -96.5 -135t-140.5 -124.5t-146 -54.5q-39 0 -58.5 18t-19.5 60q0 84 52 225l149 420q14 37 14 66q0 33 -31 45t-100 12v45q22 1 60 4.5t138 27.5t179 62zM504 1249 q-38 0 -62 25t-24 63q0 47 34 86t83 39q38 0 62 -25t24 -63q0 -47 -34 -86t-83 -39z" />
<glyph unicode="j" horiz-adv-x="557" d="M535 1249q-38 0 -62 25t-24 63q0 47 33.5 86t82.5 39q38 0 62 -25t24 -63q0 -47 -33.5 -86t-82.5 -39zM121 43l209 645q12 48 12 68q0 33 -34 45t-105 12v45q22 1 60 4.5t138 27.5t179 62l-275 -852q-44 -137 -98.5 -228.5t-147.5 -158.5q-50 -36 -119 -54.5t-142 -37 t-128 -53.5l-12 39q51 44 164 90t155 86q50 46 82 105t62 155z" />
<glyph unicode="k" horiz-adv-x="1091" d="M760 1536q-447 -1166 -447 -1167h9q58 121 121 220.5t136.5 184.5t157.5 132.5t168 47.5q53 0 92 -16t59 -42t29 -51.5t9 -51.5q0 -256 -449 -365l29 -104q39 -146 96.5 -207.5t149.5 -61.5q56 0 118 25l15 -21q-3 -4 -8.5 -10t-24.5 -22.5t-40.5 -29t-56 -22.5 t-71.5 -10q-133 0 -204 75.5t-107 248.5l-31 147q61 18 128.5 47t137 69t114 91.5t44.5 101.5q0 72 -86 72q-74 0 -161.5 -65.5t-164 -167t-141 -215t-102 -218t-37.5 -167.5q-25 -17 -74 -17q-36 0 -57 19.5t-21 52.5q0 26 10 59l400 1174q14 42 14 67q0 32 -31.5 45 t-99.5 13v45q22 1 60 4.5t138 27.5t179 62z" />
<glyph unicode="l" horiz-adv-x="626" d="M762 1536l-414 -1198q-49 -140 -49 -184q0 -43 41 -43q87 0 217 190l31 -22q-28 -53 -60 -100.5t-76.5 -99t-98 -82t-107.5 -30.5q-52 0 -85.5 32t-33.5 103q0 59 35 166l340 1004q14 42 14 67q0 32 -31.5 45t-99.5 13v45q22 1 60 4.5t138 27.5t179 62z" />
<glyph unicode="m" horiz-adv-x="1550" d="M954 653q-31 -79 -59 -145t-43.5 -99t-17.5 -40h8q47 86 95 163t108.5 156.5t118.5 136.5t123.5 93t125.5 36q58 0 83.5 -25.5t25.5 -76.5q0 -73 -39 -180l-123 -348q-55 -154 -55 -193q0 -29 30 -29q58 0 176 168l31 -22q-28 -51 -59.5 -96t-73 -89t-91 -70t-99.5 -26 q-39 0 -58.5 18t-19.5 60q0 81 69 279l123 350q25 73 25 102q0 41 -31 41q-73 0 -174.5 -100.5t-186 -236t-144.5 -277t-60 -219.5q-25 -17 -74 -17q-36 0 -57 19.5t-21 52.5q0 22 11 59q66 235 192 576q25 73 25 102q0 41 -31 41q-73 0 -174.5 -100.5t-186 -236 t-144.5 -277t-60 -219.5q-25 -17 -74 -17q-36 0 -57 19.5t-21 52.5q0 26 10 59l187 592q14 42 14 66q0 33 -31 45t-100 12v45q22 1 60 4.5t138 27.5t179 62q-219 -540 -234 -583h9q47 86 95 163t108.5 156.5t118.5 136.5t123.5 93t125.5 36q58 0 83 -25.5t25 -76.5 q0 -75 -47 -199z" />
<glyph unicode="n" horiz-adv-x="1083" d="M815 102q58 0 176 168l31 -22q-28 -51 -59.5 -96t-73 -89t-91.5 -70t-100 -26q-39 0 -58 17.5t-19 60.5q0 81 69 279l123 350q25 73 25 102q0 41 -31 41q-73 0 -174.5 -100.5t-186 -236t-144.5 -277t-60 -219.5q-25 -17 -74 -17q-36 0 -57 19.5t-21 52.5q0 26 10 59 l187 592q14 47 14 66q0 33 -31 45t-100 12v45q22 1 60 4.5t138 27.5t179 62q-219 -540 -234 -583h9q47 86 95 163t108.5 156.5t118.5 136.5t123.5 93t125.5 36q58 0 83 -25.5t25 -76.5q0 -76 -38 -180l-123 -348q-56 -157 -56 -193q0 -29 31 -29z" />
<glyph unicode="o" horiz-adv-x="890" d="M330 -33q-109 0 -173.5 76t-64.5 209q0 90 27.5 189t79 189.5t119 163.5t155 116.5t178.5 43.5q110 0 175 -75.5t65 -210.5q0 -114 -44 -237.5t-117 -226.5t-179.5 -170t-220.5 -67zM389 43q66 0 130 62t107.5 153.5t70 196.5t26.5 192q0 230 -129 230 q-88 0 -167.5 -103.5t-123 -242t-43.5 -257.5q0 -231 129 -231z" />
<glyph unicode="p" horiz-adv-x="1048" d="M723 821q-33 0 -71.5 -10.5t-60.5 -20.5l-22 -10l-215 -637q0 -4 2 -11t10.5 -24t21 -30t38.5 -24t59 -11q75 0 150 59.5t129 147t87.5 189.5t33.5 186q0 29 -3.5 54.5t-14.5 52.5t-28.5 46t-47 31t-68.5 12zM668 1167q34 0 69 -14q-29 -33 -63.5 -105t-53.5 -128 l-20 -56q69 35 182 35q127 0 198 -71t71 -183q0 -83 -31.5 -178t-89.5 -182.5t-132 -159.5t-167 -115t-187 -43q-51 0 -91 14.5t-54 34.5l-139 -374q-31 -87 -31 -140q0 -38 22.5 -57.5t79.5 -28.5l99 -16v-51h-600v51l47 14q91 27 142.5 84t90.5 166l383 1061 q-53 -24 -111 -57t-90 -54l-32 -22l-19 49q115 88 279 168l65 201q26 78 69.5 117.5t113.5 39.5z" />
<glyph unicode="q" horiz-adv-x="1015" d="M354 88q65 0 144 64t145.5 161t112 222.5t45.5 236.5q0 46 -22 72t-60 26q-62 0 -124 -33t-112.5 -87.5t-94.5 -124t-74 -142.5t-47 -143t-17 -125q0 -65 25 -96t79 -31zM903 885q10 47 52 79.5t92 32.5q35 0 57 -16q-34 -41 -59 -99t-80 -212l-367 -1028 q-31 -87 -31 -140q0 -38 23 -57.5t80 -28.5l98 -16v-51h-600v51l47 14q85 26 137.5 83.5t96.5 166.5l260 653h-9q-21 -42 -46 -82t-66 -91t-84.5 -88t-102.5 -63t-120 -26q-191 0 -191 209q0 124 54.5 261.5t142.5 252t212.5 189.5t252.5 75q102 0 151 -69z" />
<glyph unicode="r" horiz-adv-x="843" d="M115 98l166 588q14 49 14 70q0 33 -31 45t-100 12v45q22 1 60 4.5t138 27.5t179 62q-219 -540 -234 -583h8q5 12 14.5 33t39.5 81.5t62 115.5t79 122.5t92.5 116t101.5 81.5t107 33q62 0 96.5 -34t34.5 -87q0 -58 -39.5 -89t-87.5 -31l-14 2q4 12 4 26q0 24 -16.5 44 t-57.5 20q-56 0 -124.5 -65t-128.5 -165t-111 -211.5t-81 -214t-30 -163.5q-25 -15 -74 -15q-34 0 -53.5 23.5t-19.5 58.5q0 27 6 47z" />
<glyph unicode="s" horiz-adv-x="686" d="M754 838q0 -47 -34 -80t-89 -33q-17 0 -33 4q10 20 10 41q0 88 -106 88q-73 0 -113.5 -44.5t-40.5 -98.5q0 -42 20.5 -83.5t50 -78.5t59.5 -76.5t50.5 -91.5t20.5 -109q0 -70 -36 -130.5t-91 -98.5t-117 -59t-119 -21q-48 0 -85 8.5t-65 34t-28 66.5q0 52 36.5 83 t86.5 31l21 -2q-13 -23 -13 -45q0 -31 31 -51t72 -20q76 0 122 32.5t46 104.5q0 46 -17.5 90.5t-43 82.5t-51 77t-43 90.5t-17.5 107.5q0 82 53.5 152t129 107.5t148.5 37.5q86 0 135.5 -32.5t49.5 -83.5z" />
<glyph unicode="t" horiz-adv-x="673" d="M635 1174q-21 -21 -48 -82.5t-44 -112.5l-17 -51h260l-36 -90h-254l-138 -373q-90 -244 -90 -303q0 -39 35 -39q49 0 117.5 69.5t130.5 159.5l35 -20q-26 -51 -65 -108.5t-90 -117.5t-111 -99.5t-113 -39.5q-52 0 -79.5 32.5t-27.5 94.5q0 80 33 172l201 576l-111 4l6 59 l138 29l53 145q41 117 145 117q21 0 42 -7.5t28 -14.5z" />
<glyph unicode="u" horiz-adv-x="1015" d="M297 819q-58 0 -176 -168l-31 21q28 51 60 96.5t73 89.5t91 70t100 26q39 0 58.5 -18t19.5 -62q0 -75 -70 -276l-123 -352q-25 -70 -25 -103q0 -39 31 -39q73 0 174.5 100.5t186 236.5t144.5 277.5t60 219.5q21 16 70 16q36 0 57 -19t21 -54q0 -25 -10 -58l-193 -592 q-14 -47 -14 -65q0 -33 35 -45t106 -12v-46q-22 -1 -60 -4.5t-138 -27.5t-179 -62q208 511 234 584h-8q-47 -86 -95 -163t-108.5 -156.5t-119 -137t-124 -93.5t-125.5 -36q-58 0 -83 25.5t-25 77.5q0 75 39 178l122 350q56 157 56 193q0 28 -31 28z" />
<glyph unicode="v" horiz-adv-x="917" d="M344 954q86 0 86 -129q0 -70 -13 -243t-27 -311l-13 -138q76 0 173.5 92t167.5 227.5t70 247.5q0 53 -22.5 90t-67.5 44q9 54 44.5 86t82.5 32q60 0 95.5 -39.5t35.5 -101.5q0 -88 -50 -206t-137.5 -238.5t-225 -229.5t-293.5 -168l-23 21q37 591 43 788q0 41 -26 41 q-71 0 -140 -194l-32 4q4 28 15.5 65t35 83.5t53 85t74 65t94.5 26.5z" />
<glyph unicode="w" horiz-adv-x="1411" d="M848 954q86 0 86 -129q0 -70 -13 -243t-27 -311l-13 -138q76 0 173.5 92t167.5 227.5t70 247.5q0 53 -22.5 90t-67.5 44q9 54 44.5 86t82.5 32q60 0 95.5 -39.5t35.5 -101.5q0 -88 -50 -206t-137.5 -238.5t-225 -229.5t-293.5 -168l-23 21q11 221 23 416 q-81 -149 -212.5 -265t-291.5 -172l-23 21q37 591 43 788q0 41 -26 41q-71 0 -140 -194l-32 4q4 28 15.5 65t35 83.5t53 85t74 65t94.5 26.5q86 0 86 -129q0 -70 -13 -243t-27 -311l-13 -138q85 2 178.5 99.5t156 249.5t62.5 296q0 41 -26 41q-71 0 -140 -194l-33 4 q4 27 16 64.5t35 84t53 85t74.5 65t94.5 26.5z" />
<glyph unicode="x" horiz-adv-x="1122" d="M678 528l20 -144q45 -275 103 -275q33 0 69.5 39t61.5 83.5t55 108.5l39 -10q-15 -46 -28.5 -83t-33 -81.5t-40.5 -77.5t-46 -62t-55 -44t-63 -15q-45 0 -82.5 40.5t-58.5 98.5t-35.5 116.5t-19.5 99.5l-5 40q-5 -8 -14.5 -22.5t-40 -55.5t-61 -78t-74.5 -83t-85.5 -78.5 t-89 -55t-88.5 -22.5q-47 0 -77.5 22.5t-30.5 71.5q0 46 34 78.5t60 32.5q0 -53 58 -53q42 0 97.5 34t105 82.5t93.5 97t70 82.5l25 34l-13 126q-32 242 -90 242q-22 0 -49.5 -24t-50.5 -58.5t-43 -69.5t-31 -59l-12 -24l-31 24q5 14 13.5 37.5t38 83.5t61.5 106t82 83.5 t102 37.5q31 0 57.5 -35t41.5 -85t26 -100t15 -85l4 -35q7 14 20 36.5t55 81t85.5 103t107.5 81t125 36.5q58 0 91.5 -28t33.5 -74q0 -55 -47.5 -88t-90.5 -33q5 20 5 27q0 25 -16.5 39t-47.5 14q-38 0 -83 -29t-83 -70t-70 -82.5t-51 -70.5z" />
<glyph unicode="y" horiz-adv-x="999" d="M1030 811q0 -91 -56 -225.5t-148 -279t-216.5 -289t-254 -258.5t-268 -185.5t-251.5 -71.5q-61 0 -97 29.5t-36 79.5q0 44 26.5 73.5t65.5 39.5q19 -66 109 -66q146 0 280.5 79.5t173.5 160.5q13 30 13 176q0 90 -7 212t-14.5 206.5t-17.5 181t-10 98.5q-3 47 -25 47 q-26 0 -53 -28t-47 -68.5t-29.5 -63t-13.5 -34.5l-33 4q4 28 15.5 65t35 83.5t53 85t74 65t94.5 26.5q49 0 65.5 -33t20.5 -94q23 -414 23 -821q137 131 248.5 340t111.5 354q0 51 -22.5 89t-67.5 45q9 54 44.5 86t82.5 32q60 0 95.5 -39.5t35.5 -101.5z" />
<glyph unicode="z" horiz-adv-x="1030" d="M504 942q56 0 111.5 -21.5t92 -48t80.5 -48t80 -21.5q42 0 78 34t52.5 66.5t19.5 50.5q21 0 36 -10.5t15 -30.5q0 -33 -23 -71t-68.5 -80.5t-80.5 -71t-93.5 -72.5t-72.5 -55q-86 -67 -257.5 -178t-235.5 -164l6 -6q23 14 61 14q57 0 123.5 -24t115.5 -53.5t103 -53.5 t90 -24q70 0 113 28.5t43 83.5q0 36 -23.5 61t-66.5 25q-21 0 -33 -6q0 56 38.5 88.5t80.5 32.5q51 0 80.5 -27.5t29.5 -78.5q0 -49 -27 -105t-72 -104.5t-110.5 -80.5t-134.5 -32q-61 0 -115.5 18.5t-93 44.5t-73.5 52t-71.5 44.5t-72.5 18.5q-33 0 -55 -23.5t-22 -52.5 q0 -37 24 -71q-27 -23 -61 -23q-31 0 -50.5 22t-19.5 56q0 35 16.5 70t40 63t66.5 63.5t77.5 60t92.5 63.5q28 19 109 73t136 91.5t131 95t134 108.5l-6 6q-43 -16 -90 -16q-63 0 -185 50t-176 50q-39 0 -68.5 -22t-29.5 -62q0 -44 30.5 -65t79.5 -21q-7 -47 -40 -74.5 t-78 -27.5q-49 0 -76 31.5t-27 74.5q0 78 55.5 146t129 103.5t137.5 35.5z" />
<glyph unicode="{" horiz-adv-x="772" d="M379 516q52 -10 89.5 -55t37.5 -117q0 -69 -25.5 -157t-55.5 -158.5t-55.5 -152.5t-25.5 -140q0 -49 22.5 -75t59.5 -26q64 0 90 46q31 -7 31 -39q0 -29 -26 -48.5t-54.5 -25.5t-54.5 -6q-81 0 -139 50.5t-58 151.5q0 74 29.5 158.5t64.5 148.5t64.5 147.5t29.5 156.5 q0 114 -122 114h-41l14 54h41q160 0 213 198q19 73 24 203.5t29 229.5q74 296 336 296q47 0 73.5 -19.5t26.5 -43.5q0 -43 -55 -55q-3 20 -20.5 32.5t-47.5 12.5q-92 0 -155 -162q-32 -86 -51 -227t-45 -242q-27 -107 -99 -172.5t-145 -77.5z" />
<glyph unicode="|" horiz-adv-x="452" d="M211 508l225 1057h125q-196 -858 -239 -1057l-226 -1057h-123q195 856 238 1057z" />
<glyph unicode="}" horiz-adv-x="772" d="M487 516q-55 10 -92 54t-37 118q0 68 25.5 150.5t55.5 149t55.5 151.5t25.5 157q0 49 -23 75t-59 26q-62 0 -92 -45q-31 12 -31 39q0 39 44.5 59t91.5 20q81 0 139.5 -49.5t58.5 -148.5q0 -60 -19.5 -126t-47.5 -124t-56 -116.5t-47.5 -123.5t-19.5 -125q0 -114 123 -114 h41l-15 -54h-41q-161 0 -211 -198q-22 -85 -28.5 -218.5t-26.5 -213.5q-20 -77 -59 -137t-86.5 -93.5t-95 -50t-91.5 -16.5q-52 0 -77 16.5t-25 40.5q0 23 15 40.5t40 21.5q10 -46 68 -46q44 0 85 41.5t68 120.5q28 85 50 228t49 241q31 110 99 175t146 75z" />
<glyph unicode="~" horiz-adv-x="1161" d="M524 625q60 0 114.5 -22t89 -48t84.5 -48t101 -22q64 0 125.5 34t102.5 95l41 -34q-43 -99 -131.5 -162.5t-210.5 -63.5q-56 0 -108.5 21t-86.5 45.5t-82.5 45.5t-99.5 21q-66 0 -126.5 -31.5t-100.5 -90.5l-41 34q45 97 131.5 161.5t197.5 64.5z" />
<glyph unicode="&#xa1;" horiz-adv-x="585" d="M133 -467q-45 0 -72.5 28.5t-27.5 73.5q0 15 4 35q26 131 133.5 421.5t136.5 424.5l15 96h69q-12 -37 -24 -96q-28 -127 -43 -426t-52 -432q-18 -63 -55.5 -94t-83.5 -31zM446 1028q46 0 74.5 -29t28.5 -73q0 -55 -39.5 -99.5t-97.5 -44.5q-45 0 -73 29t-28 74 q0 55 39 99t96 44z" />
<glyph unicode="&#xa2;" horiz-adv-x="806" d="M729 715q12 34 12 57q0 84 -104 84q-69 0 -130.5 -40.5t-106 -106.5t-77.5 -147.5t-49 -165t-16 -158.5q0 -74 34.5 -114t96.5 -40q89 0 169 57.5t140 139.5l31 -23q-23 -46 -52.5 -88.5t-72 -88t-101 -76t-122.5 -36.5l-102 -305h-76q55 141 112 305q-225 15 -225 246 q0 116 45 239.5t121 227t186 177t230 89.5l112 336h76q-64 -160 -119 -330q61 0 105.5 -27.5t44.5 -84.5t-40 -94t-93 -37q-17 0 -29 4z" />
<glyph unicode="&#xa3;" horiz-adv-x="966" d="M848 954q76 0 118 -32t42 -80q0 -59 -39.5 -93t-96.5 -34q-48 0 -69 12q49 33 49 84q0 24 -23 42.5t-57 18.5q-88 0 -141.5 -59.5t-83.5 -167.5l-47 -168h254l-17 -59h-256l-39 -137q-21 -76 -66 -123t-118 -76l2 -6q54 24 131 24q44 0 124.5 -24.5t119.5 -24.5 q51 0 97 27t71 72l24 -17q-62 -211 -270 -211q-73 0 -169 30t-157 30q-102 0 -198 -45l-13 32q37 24 59 39.5t57 47.5t59 64.5t50.5 84t45.5 112.5l31 101h-150l10 31q90 8 160 26l23 84q27 101 81 179.5t121.5 124t139 68.5t141.5 23z" />
<glyph unicode="&#xa5;" horiz-adv-x="1021" d="M969 899l135 4l-12 -51l-27 -4q-68 -11 -119 -74l-311 -381l295 4l-19 -67q-182 2 -303 4l-55 -187q-8 -32 -8 -43q0 -46 53 -49l45 -4l-12 -51q-72 6 -195 6q-53 0 -99.5 -1.5t-66.5 -2.5l-20 -2l18 51l41 6q78 12 123 166l33 111l-301 -4l20 67q166 -2 287 -4l-119 395 q-15 49 -69 58l-39 6l12 51q60 -6 158 -6l170 6l-15 -51l-20 -4q-45 -11 -45 -66q0 -10 4 -30l82 -322l278 342q25 30 25 51q0 22 -37 25l-37 4l12 51q64 -4 138 -4z" />
<glyph unicode="&#xa6;" horiz-adv-x="450" d="M379 688h-113l187 877h127q-129 -559 -201 -877zM186 328h111l-184 -877h-121q122 556 194 877z" />
<glyph unicode="&#xa7;" d="M348 -270q100 0 177 75t77 179q0 62 -33.5 139t-81.5 153t-96 157t-81.5 178.5t-33.5 189.5q0 137 62.5 261t164.5 211t236 138t273 51q104 0 155.5 -37.5t51.5 -93.5q0 -55 -41 -97t-99 -42q-50 0 -73 20q26 33 26 70q0 31 -24 52.5t-76 21.5q-100 0 -178 -74t-78 -178 q0 -62 33.5 -138t81 -151.5t95.5 -156t81.5 -178t33.5 -191.5q0 -133 -62 -257.5t-163.5 -213t-236 -142t-273.5 -53.5q-101 0 -153 43t-52 101q0 54 40.5 90.5t97.5 36.5q49 0 73 -21q-26 -33 -26 -70q0 -31 24.5 -52t77.5 -21zM717 1319q-127 -47 -210 -171t-83 -267 q0 -85 32 -173.5t78 -164.5t92.5 -151t78.5 -157.5t32 -158.5q0 -91 -47 -170.5t-129 -138.5q133 50 214 177.5t81 276.5q0 76 -23 152.5t-58 137t-75.5 127t-75.5 122.5t-58 123t-23 129q0 186 174 307z" />
<glyph unicode="&#xa8;" horiz-adv-x="571" d="M293 1118q-36 0 -59 23t-23 59q0 44 32 79.5t79 35.5q36 0 57.5 -23t21.5 -59q0 -43 -32 -79t-76 -36zM641 1118q-36 0 -59 23t-23 59q0 44 32 79.5t79 35.5q36 0 58 -23t22 -59q0 -43 -32.5 -79t-76.5 -36z" />
<glyph unicode="&#xa9;" horiz-adv-x="1746" d="M305 715q0 -176 83.5 -325.5t227.5 -236.5t314 -87q169 0 313 87t227.5 236.5t83.5 325.5t-83.5 325.5t-227.5 236.5t-313 87q-170 0 -314 -87t-227.5 -236.5t-83.5 -325.5zM184 715q0 152 59 290t159 237.5t238 158.5t290 59t290 -59t237.5 -158.5t158.5 -237.5t59 -290 t-59 -290t-158.5 -238t-237.5 -159t-290 -59q-203 0 -374.5 100t-271.5 271.5t-100 374.5zM1235 1085v-196h-39q-9 80 -80 133t-182 53q-123 0 -200 -96t-77 -248q0 -184 89 -276.5t233 -92.5q97 0 157.5 61t82.5 161l36 -2l-26 -246q-37 0 -127 -21.5t-158 -21.5 q-89 0 -165 23t-136 70t-94.5 126t-34.5 182q0 117 50 216.5t152.5 163t239.5 63.5q56 0 153 -26t126 -26z" />
<glyph unicode="&#xaa;" horiz-adv-x="681" d="M129 567l23 80q126 -6 251 -6l261 6l-23 -80q-119 6 -254 6zM616 819q29 0 55 29.5t56 77.5l25 -15q-12 -29 -28 -57t-39.5 -57.5t-54.5 -47.5t-63 -18q-29 0 -47 17.5t-18 54.5q0 28 14 82h-8q-82 -154 -191 -154q-56 0 -84 39t-28 102q0 94 49 185t130.5 149t168.5 58 q50 0 90 -31q25 63 72 63q27 0 49 -22q-34 -42 -99 -197.5t-65 -232.5q0 -25 16 -25zM360 809q45 0 97.5 64t90 142t58.5 146q-25 51 -78 51q-58 0 -110 -48t-81.5 -121t-29.5 -148q0 -46 11.5 -66t41.5 -20z" />
<glyph unicode="&#xab;" horiz-adv-x="899" d="M184 485l432 443l23 -92l-356 -347q43 -41 80.5 -88.5t71.5 -116.5t34 -128q0 -47 -23.5 -86t-60.5 -39q-36 120 -86 233.5t-83 167.5zM526 485l394 402l20 -84l-322 -314q63 -59 114.5 -139t51.5 -155q0 -45 -19.5 -83t-57.5 -38q-31 110 -76.5 213t-74.5 151z" />
<glyph unicode="&#xac;" horiz-adv-x="933" d="M918 717v-561h-127v444h-777v117h904z" />
<glyph unicode="&#xad;" horiz-adv-x="796" d="M725 530q-284 -15 -584 -112l-14 28q101 68 246 128.5t266 60.5q44 0 71 -17.5t27 -48.5q0 -23 -12 -39z" />
<glyph unicode="&#xae;" horiz-adv-x="798" d="M233 1176q0 -101 68 -172.5t170 -71.5q100 0 168 71.5t68 172.5q0 102 -68 173.5t-168 71.5q-102 0 -170 -71.5t-68 -173.5zM184 1176q0 120 83.5 203t203.5 83q119 0 203 -83t84 -203q0 -118 -84 -202.5t-203 -84.5q-124 0 -205.5 83.5t-81.5 203.5zM508 1176 q10 -7 20 -23l52 -84q16 -27 51 -27l16 2v-16q-17 -8 -37 -8q-31 0 -48.5 9.5t-37.5 39.5l-49 76q-10 18 -29 18l-12 -2v-92q0 -24 23 -27l18 -2v-16q-38 2 -67 2l-66 -2v16l12 2q27 6 27 48v186q0 20 -5 28t-18 11l-16 4v16q32 -2 61 -2q14 0 35.5 1t30.5 1q46 0 75 -21.5 t29 -56.5q0 -29 -16.5 -49.5t-32.5 -25.5zM459 1315q-13 0 -25 -4v-129q13 10 29 10l20 -4q29 18 29 69q0 30 -15.5 44t-37.5 14z" />
<glyph unicode="&#xaf;" horiz-adv-x="657" d="M213 1182q137 -6 264 -6l266 6l-28 -113q-121 6 -264 6l-267 -6z" />
<glyph unicode="&#xb0;" horiz-adv-x="669" d="M336 1184q0 -69 49.5 -119.5t118.5 -50.5t117.5 50.5t48.5 119.5q0 73 -48.5 124.5t-117.5 51.5t-118.5 -51.5t-49.5 -124.5zM246 1184q0 110 74.5 185t183.5 75t183.5 -75t74.5 -185q0 -107 -74.5 -181.5t-183.5 -74.5t-183.5 74.5t-74.5 181.5z" />
<glyph unicode="&#xb1;" horiz-adv-x="933" d="M403 641v293h127v-293h388v-117h-388v-293h-127v293h-389v117h389zM14 0v117h904v-117h-904z" />
<glyph unicode="&#xb2;" horiz-adv-x="780" d="M399 1069h246q68 0 130.5 38.5t105.5 113.5l24 -11q-72 -141 -133 -268h-547l2 45l322 293q99 89 154 173.5t55 172.5q0 50 -27.5 78.5t-73.5 28.5q-58 0 -103.5 -39.5t-45.5 -94.5q0 -37 37 -45q-7 -26 -30.5 -41.5t-49.5 -15.5q-27 0 -45.5 18.5t-18.5 53.5 q0 59 31 111t79.5 86t104.5 53.5t107 19.5q94 0 147.5 -47t53.5 -127q0 -44 -17 -90.5t-40.5 -85.5t-65.5 -85.5t-74 -77.5t-86.5 -74.5t-82 -64.5t-79.5 -59z" />
<glyph unicode="&#xb3;" horiz-adv-x="755" d="M756 1661q0 41 -27.5 66.5t-81.5 25.5q-71 0 -113 -38t-42 -79q0 -35 30 -41q-28 -45 -80 -45q-27 0 -44 15.5t-17 46.5q0 57 34 102.5t86 71.5t106 39.5t102 13.5q86 0 138 -43t52 -110q0 -98 -79.5 -169t-180.5 -94v-10q11 2 27 2q75 0 120 -39t45 -106 q0 -84 -47 -152.5t-120.5 -108.5t-153.5 -61.5t-154 -21.5t-131 14l15 49q30 -6 65 -6q88 0 171 31.5t139.5 95.5t56.5 145q0 111 -152 111h-84v45q52 6 105.5 24t103 48t80.5 76.5t31 101.5z" />
<glyph unicode="&#xb4;" horiz-adv-x="509" d="M674 1370q0 -47 -52.5 -103t-126 -100.5t-144.5 -78t-115 -44.5q-9 21 -11 27q213 148 404 363q16 -4 30.5 -21.5t14.5 -42.5z" />
<glyph unicode="&#xb5;" horiz-adv-x="1015" d="M297 819q-58 0 -176 -168l-31 21q28 51 60 96.5t73 89.5t91 70t100 26q39 0 58.5 -18t19.5 -62q0 -75 -70 -276l-123 -352q-25 -70 -25 -103q0 -39 31 -39q73 0 174.5 100.5t186 236.5t144.5 277.5t60 219.5q21 16 70 16q36 0 57 -19t21 -54q0 -25 -10 -58l-193 -592 q-14 -47 -14 -65q0 -33 35 -45t106 -12v-46q-22 -1 -60 -4.5t-138 -27.5t-179 -62q208 511 234 584h-8q-47 -86 -95 -163t-108.5 -156.5t-119 -137t-124 -93.5t-125.5 -36q-56 0 -72 33q-31 -68 -53 -161t-22 -158q0 -61 32 -82q-12 -30 -44.5 -54t-65.5 -24q-31 0 -50.5 18 t-19.5 53q0 26 17 82q34 115 115.5 328t93.5 246l122 350q56 157 56 193q0 28 -31 28z" />
<glyph unicode="&#xb6;" horiz-adv-x="1181" d="M1192 1427q60 0 116 1.5t82 3.5l27 2l-16 -60l-41 -10q-142 -35 -180 -201l-183 -817q-42 -186 -113.5 -327t-163.5 -227t-198 -128.5t-225 -42.5q-98 0 -167 48t-69 132q0 63 40 106.5t106 43.5q57 0 82 -31q-30 -22 -49 -60t-19 -79q0 -76 98 -76q210 0 316 475l90 404 q-21 -2 -68 -2q-368 0 -368 290q0 258 160 410t419 152q86 0 183 -3.5t141 -3.5zM842 242l243 1108h-92l-248 -1129q-40 -181 -90 -289t-137 -184q240 95 324 494z" />
<glyph unicode="&#xb7;" horiz-adv-x="423" d="M215 473q-45 0 -73.5 28.5t-28.5 73.5q0 55 39.5 99.5t97.5 44.5q45 0 72.5 -29t27.5 -74q0 -55 -39 -99t-96 -44z" />
<glyph unicode="&#xb8;" horiz-adv-x="452" d="M418 0h31q-78 -38 -78 -98q0 -23 17 -44.5t38 -36.5t38 -39.5t17 -53.5q0 -64 -47.5 -110.5t-107 -65.5t-115.5 -19q-59 0 -95 24t-36 64q0 39 28.5 63.5t63.5 24.5q25 0 35 -10q-35 -23 -35 -57q0 -22 18 -38t58 -16q45 0 78.5 21.5t33.5 60.5q0 25 -14 47.5t-30 37.5 t-30 41.5t-14 58.5q0 53 48.5 94.5t97.5 50.5z" />
<glyph unicode="&#xb9;" horiz-adv-x="577" d="M631 983l-13 -41q-85 6 -200 6q-56 0 -104 -1.5t-68 -2.5l-21 -2l13 41l41 10q57 13 88 51.5t47 104.5l110 436q4 20 4 31q0 43 -49 43q-8 0 -23.5 -2.5t-42.5 -7t-48 -7.5v41q160 31 317 136h39l-184 -719q-9 -38 -9 -60q0 -25 12 -36.5t38 -14.5z" />
<glyph unicode="&#xba;" horiz-adv-x="659" d="M412 731q-64 0 -103 44.5t-39 121.5q0 88 42.5 179.5t120 155.5t165.5 64q66 0 104.5 -43.5t38.5 -119.5q0 -89 -42.5 -181.5t-120 -156.5t-166.5 -64zM446 782q50 0 95.5 57.5t70.5 136t25 146.5q0 123 -72 123q-50 0 -95 -57.5t-69 -135.5t-24 -145q0 -125 69 -125z M129 567l23 80q126 -6 251 -6l261 6l-23 -80q-119 6 -254 6z" />
<glyph unicode="&#xbb;" horiz-adv-x="899" d="M797 473l-432 -442l-23 92l356 346q-67 65 -126.5 164t-59.5 184q0 44 24 77.5t60 33.5q37 -108 87.5 -221.5t82.5 -173.5zM455 473l-394 -401l-20 84l321 313q-59 55 -112 144t-53 165q0 42 20.5 74.5t56.5 32.5q29 -86 74.5 -189t75.5 -163z" />
<glyph unicode="&#xbc;" horiz-adv-x="1771" d="M1563 1462h127q-393 -476 -639 -778q-100 -124 -241 -303.5t-232 -296.5l-91 -117h-127q391 472 637 774q100 125 241.5 305t233.5 298zM1665 229h-164l-22 -94q-6 -21 -6 -39q0 -24 12.5 -35t38.5 -14l55 -6l-12 -41q-113 6 -189 6l-209 -6l13 41l43 10q47 10 81.5 48 t49.5 94l10 36h-381l-8 35l373 430q80 94 80 158q0 35 -21 49q30 35 76 35q29 0 46 -18.5t17 -49.5q0 -32 -12 -63t-39 -64.5t-47 -54.5t-59 -58t-52 -50l-254 -256h304l67 262l152 61l-82 -323h164zM733 582l-12 -41q-86 6 -201 6q-56 0 -104 -1.5t-68 -3.5l-20 -1l12 41 l41 10q57 13 88 51.5t47 104.5l111 436q4 20 4 30q0 43 -49 43q-5 0 -115 -16v41q162 31 317 135h39l-184 -719q-8 -33 -8 -59q0 -25 11.5 -36.5t37.5 -14.5z" />
<glyph unicode="&#xbd;" horiz-adv-x="1802" d="M1565 1462h129q-395 -476 -639 -778q-101 -124 -241.5 -303t-231.5 -297l-90 -117h-130q391 472 637 776q100 124 241.5 304t233.5 297zM733 582l-12 -41q-86 6 -201 6q-56 0 -104 -1.5t-68 -3.5l-20 -1l12 41l41 10q57 13 88 51.5t47 104.5l111 436q4 20 4 30 q0 43 -49 43q-5 0 -115 -16v41q162 31 317 135h39l-184 -719q-8 -33 -8 -59q0 -25 11.5 -36.5t37.5 -14.5zM1196 127h246q68 0 130 38.5t105 113.5l25 -11q-72 -141 -133 -268h-547l2 45l322 293q208 188 208 346q0 51 -27 79t-73 28q-58 0 -103.5 -39.5t-45.5 -94.5 q0 -37 36 -45q-7 -26 -30 -41.5t-49 -15.5q-27 0 -45.5 18.5t-18.5 53.5q0 59 31 111t79.5 86t104.5 53.5t107 19.5q94 0 147 -47t53 -127q0 -44 -17 -90.5t-40.5 -85.5t-65 -85.5t-74 -77.5t-86.5 -74.5t-82 -64.5t-79 -59z" />
<glyph unicode="&#xbe;" horiz-adv-x="1832" d="M1622 1462h129q-395 -476 -641 -778q-100 -124 -240 -303t-230 -297l-91 -117h-129q391 472 637 776q100 124 241.5 303.5t232.5 297.5zM1724 229h-163l-23 -94q-6 -21 -6 -39q0 -24 12.5 -35t38.5 -14l55 -6l-12 -41q-112 6 -188 6l-209 -6l12 41l43 10q47 10 81.5 48 t49.5 94l10 36h-381l-8 35l373 430q80 94 80 158q0 35 -21 49q30 35 76 35q29 0 46.5 -18.5t17.5 -49.5q0 -32 -12 -63t-39 -64.5t-47 -54.5t-59 -58t-52 -50l-254 -256h303l68 262l151 61l-82 -323h164zM858 1255q0 41 -27 67t-81 26q-72 0 -114 -38t-42 -79q0 -35 31 -41 q-28 -45 -80 -45q-27 0 -44.5 15.5t-17.5 45.5q0 57 34 102.5t86 72t106 40t102 13.5q86 0 138 -43.5t52 -110.5q0 -98 -79.5 -168.5t-180.5 -93.5v-10q11 2 27 2q75 0 120.5 -39.5t45.5 -106.5q0 -84 -47 -152.5t-120.5 -108.5t-153.5 -61.5t-154 -21.5q-69 0 -131 15 l14 49q30 -6 66 -6q88 0 170.5 31.5t139 95.5t56.5 145q0 111 -151 111h-84v45q52 6 105.5 24t102.5 47.5t80 76t31 101.5z" />
<glyph unicode="&#xbf;" horiz-adv-x="808" d="M623 610h39q47 -73 47 -180q0 -65 -28.5 -121.5t-73.5 -97.5t-100 -79t-110 -74.5t-100 -75t-73.5 -89t-28.5 -108.5q0 -57 51 -107.5t137 -50.5q65 0 103 25t38 69q0 16 -3.5 30.5t-6.5 20.5l-4 7q35 14 78 14q42 0 72 -26t30 -68q0 -58 -37 -97t-86.5 -54t-107.5 -15 q-137 0 -247 88t-110 211q0 71 18 130.5t48.5 102.5t70.5 79.5t83.5 66t87.5 57.5t84 58t70.5 63t48.5 78t18 98q0 25 -8 45zM760 1028q45 0 73.5 -28.5t28.5 -73.5q0 -55 -39.5 -99.5t-97.5 -44.5q-45 0 -72.5 29t-27.5 74q0 55 39 99t96 44z" />
<glyph unicode="&#xc0;" horiz-adv-x="1378" d="M903 621l-53 602l-334 -602h387zM877 1444l137 22l116 -1276q4 -57 31 -84t86 -36l66 -11l-15 -59q-111 6 -256 6l-317 -6l14 59l43 11q163 32 152 184l-21 283h-436l-147 -281q-2 -4 -10 -18.5t-10.5 -18.5t-8.5 -16t-8 -17t-5.5 -14.5t-5 -16t-2.5 -14.5t-1 -16 q0 -24 20 -36.5t63 -18.5l66 -11l-14 -59q-148 6 -244 6l-246 -6l15 59l43 11q47 11 83.5 30.5t65.5 51t48 60t46 77.5zM657 1901q0 25 14.5 42t30.5 21q189 -212 404 -362l-10 -27q-44 11 -115 44.5t-144.5 78t-126.5 100.5t-53 103z" />
<glyph unicode="&#xc1;" horiz-adv-x="1378" d="M903 621l-53 602l-334 -602h387zM877 1444l137 22l116 -1276q4 -57 31 -84t86 -36l66 -11l-15 -59q-111 6 -256 6l-317 -6l14 59l43 11q163 32 152 184l-21 283h-436l-147 -281q-2 -4 -10 -18.5t-10.5 -18.5t-8.5 -16t-8 -17t-5.5 -14.5t-5 -16t-2.5 -14.5t-1 -16 q0 -24 20 -36.5t63 -18.5l66 -11l-14 -59q-148 6 -244 6l-246 -6l15 59l43 11q47 11 83.5 30.5t65.5 51t48 60t46 77.5zM1229 1901q0 -47 -52.5 -103t-126 -100.5t-144.5 -78t-115 -44.5q-9 21 -11 27q215 150 404 362q16 -4 30.5 -21t14.5 -42z" />
<glyph unicode="&#xc2;" horiz-adv-x="1378" d="M903 621l-53 602l-334 -602h387zM877 1444l137 22l116 -1276q4 -57 31 -84t86 -36l66 -11l-15 -59q-111 6 -256 6l-317 -6l14 59l43 11q163 32 152 184l-21 283h-436l-147 -281q-2 -4 -10 -18.5t-10.5 -18.5t-8.5 -16t-8 -17t-5.5 -14.5t-5 -16t-2.5 -14.5t-1 -16 q0 -24 20 -36.5t63 -18.5l66 -11l-14 -59q-148 6 -244 6l-246 -6l15 59l43 11q47 11 83.5 30.5t65.5 51t48 60t46 77.5zM627 1595l405 369q11 -25 30.5 -66.5t78 -136.5t114.5 -151q0 -19 -15.5 -36.5t-45.5 -17.5q-38 0 -74.5 39.5t-60.5 93.5t-38.5 103.5t-16.5 77.5 l-299 -314z" />
<glyph unicode="&#xc3;" horiz-adv-x="1378" d="M903 621l-53 602l-334 -602h387zM877 1444l137 22l116 -1276q4 -57 31 -84t86 -36l66 -11l-15 -59q-111 6 -256 6l-317 -6l14 59l43 11q163 32 152 184l-21 283h-436l-147 -281q-2 -4 -10 -18.5t-10.5 -18.5t-8.5 -16t-8 -17t-5.5 -14.5t-5 -16t-2.5 -14.5t-1 -16 q0 -24 20 -36.5t63 -18.5l66 -11l-14 -59q-148 6 -244 6l-246 -6l15 59l43 11q47 11 83.5 30.5t65.5 51t48 60t46 77.5zM879 1845q40 0 76.5 -15.5t59 -33.5t56.5 -33.5t70 -15.5q102 0 164 104l20 -32q-36 -85 -101.5 -135t-148.5 -50q-42 0 -78.5 15.5t-58.5 34t-55.5 34 t-69.5 15.5q-102 0 -164 -105l-20 33q36 85 101.5 134.5t148.5 49.5z" />
<glyph unicode="&#xc4;" horiz-adv-x="1275" d="M856 621l-53 602l-334 -602h387zM829 1444l138 22l116 -1276q4 -57 31 -84t86 -36l66 -11l-15 -59q-111 6 -256 6l-317 -6l14 59l43 11q163 32 152 184l-21 283h-436l-147 -281q-4 -7 -12 -21.5t-11 -20.5l-9 -18t-8.5 -18.5t-6 -16.5t-4.5 -18.5t-1 -17.5 q0 -24 20.5 -36.5t63.5 -18.5l66 -11l-14 -59q-148 6 -244 6l-246 -6l14 59l43 11q90 21 140 71.5t104 147.5zM729 1608q-36 0 -59 23t-23 59q0 44 32 79t79 35q36 0 58 -23t22 -59q0 -43 -32.5 -78.5t-76.5 -35.5zM1077 1608q-36 0 -59 23t-23 59q0 44 32 79t79 35 q36 0 58 -23t22 -59q0 -43 -32.5 -78.5t-76.5 -35.5z" />
<glyph unicode="&#xc5;" horiz-adv-x="1275" d="M856 621l-53 602l-334 -602h387zM829 1444l138 22l116 -1276q4 -57 31 -84t86 -36l66 -11l-15 -59q-111 6 -256 6l-317 -6l14 59l43 11q163 32 152 184l-21 283h-436l-147 -281q-4 -7 -12 -21.5t-11 -20.5l-9 -18t-8.5 -18.5t-6 -16.5t-4.5 -18.5t-1 -17.5 q0 -24 20.5 -36.5t63.5 -18.5l66 -11l-14 -59q-148 6 -244 6l-246 -6l14 59l43 11q90 21 140 71.5t104 147.5zM926 1890q-61 0 -98 -52.5t-37 -111.5q0 -49 27.5 -71.5t70.5 -22.5q61 0 98 52.5t37 111.5q0 49 -27.5 71.5t-70.5 22.5zM848 1573q-60 0 -96.5 33t-36.5 92 q0 101 77.5 176.5t174.5 75.5q60 0 96.5 -33t36.5 -92q0 -101 -77.5 -176.5t-174.5 -75.5z" />
<glyph unicode="&#xc6;" horiz-adv-x="1847" d="M1288 70q68 0 123.5 9.5t97.5 30.5t72.5 42t58 55.5t43 58t37.5 62.5l43 -6l-100 -322q-510 6 -686 6l-270 -6l14 59l43 11q85 20 128.5 65.5t63.5 134.5l60 267h-414l-233 -281q-5 -5 -20 -22t-21.5 -25t-18 -22.5t-16.5 -24t-9.5 -21.5t-4.5 -22q0 -15 12 -25 t26.5 -14.5t38.5 -9.5l52 -11l-15 -59q-162 6 -258 6l-229 -6l14 59l45 11q51 11 92 29.5t79.5 50t65.5 59.5t72 80l902 1036q-16 26 -86 39l-66 10l14 60q107 -7 287 -7l653 7l-82 -306h-41q0 124 -66 180t-233 56q-98 0 -159 -14l-137 -576h170q72 0 121.5 39.5 t88.5 118.5l39 80h54q-51 -145 -78 -262q-13 -56 -22 -112.5t-12 -85.5l-3 -28h-51l-2 51q-3 119 -123 119h-203l-104 -438q-13 -52 -13 -82q0 -55 40 -79.5t126 -24.5zM668 621h368l133 581z" />
<glyph unicode="&#xc7;" horiz-adv-x="1390" d="M1470 1229q0 -96 -56 -143.5t-136 -47.5q-20 0 -36.5 4t-23.5 8l-6 3q56 56 56 137q0 74 -78 132t-209 58q-128 0 -236.5 -45.5t-185 -124t-130.5 -183.5t-79.5 -223.5t-25.5 -244.5q0 -235 101 -372.5t267 -137.5q371 0 543 311l53 -14l-133 -301q-50 0 -114 -18.5 t-155 -38t-204 -21.5q-29 -29 -29 -65q0 -23 17.5 -44.5t38 -36.5t38 -39.5t17.5 -53.5q0 -64 -47.5 -110.5t-107 -65.5t-115.5 -19q-59 0 -95.5 24t-36.5 64q0 39 29 63.5t64 24.5q24 0 34 -10q-34 -23 -34 -57q0 -22 17.5 -38t57.5 -16q45 0 79 21.5t34 60.5 q0 25 -13.5 47.5t-30.5 37.5t-30.5 41.5t-13.5 58.5q0 64 72 114q-240 12 -374 159.5t-134 389.5q0 197 72.5 371.5t200 300.5t310 199t392.5 73q171 0 273.5 -68.5t102.5 -164.5z" />
<glyph unicode="&#xc8;" d="M598 70q68 0 123.5 9.5t97.5 30.5t72.5 42t58 55.5t43 58t37.5 62.5l43 -6l-100 -322q-510 6 -686 6l-271 -6l15 59l43 11q85 20 128.5 65.5t63.5 134.5l219 961q9 45 9 59q0 35 -22.5 50.5t-72.5 23.5l-65 10l14 60q107 -7 287 -7l653 7l-82 -306h-41q0 124 -66 180 t-233 56q-98 0 -159 -14l-138 -576h170q72 0 122 39.5t89 118.5l39 80h53q-50 -145 -77 -262q-13 -56 -22 -112.5t-12 -85.5l-3 -28h-51l-3 51q-3 119 -122 119h-203l-105 -438q-12 -48 -12 -82q0 -55 40 -79.5t126 -24.5zM707 1901q0 25 14.5 42t30.5 21q191 -214 403 -362 l-10 -27q-44 11 -115 44.5t-144.5 78t-126 100.5t-52.5 103z" />
<glyph unicode="&#xc9;" d="M598 70q68 0 123.5 9.5t97.5 30.5t72.5 42t58 55.5t43 58t37.5 62.5l43 -6l-100 -322q-510 6 -686 6l-271 -6l15 59l43 11q85 20 128.5 65.5t63.5 134.5l219 961q9 45 9 59q0 35 -22.5 50.5t-72.5 23.5l-65 10l14 60q107 -7 287 -7l653 7l-82 -306h-41q0 124 -66 180 t-233 56q-98 0 -159 -14l-138 -576h170q72 0 122 39.5t89 118.5l39 80h53q-50 -145 -77 -262q-13 -56 -22 -112.5t-12 -85.5l-3 -28h-51l-3 51q-3 119 -122 119h-203l-105 -438q-12 -48 -12 -82q0 -55 40 -79.5t126 -24.5zM1182 1901q0 -47 -53 -103t-126.5 -100.5 t-144.5 -78t-115 -44.5q-8 21 -10 27q215 150 404 362q16 -4 30.5 -21t14.5 -42z" />
<glyph unicode="&#xca;" d="M598 70q68 0 123.5 9.5t97.5 30.5t72.5 42t58 55.5t43 58t37.5 62.5l43 -6l-100 -322q-510 6 -686 6l-271 -6l15 59l43 11q85 20 128.5 65.5t63.5 134.5l219 961q9 45 9 59q0 35 -22.5 50.5t-72.5 23.5l-65 10l14 60q107 -7 287 -7l653 7l-82 -306h-41q0 124 -66 180 t-233 56q-98 0 -159 -14l-138 -576h170q72 0 122 39.5t89 118.5l39 80h53q-50 -145 -77 -262q-13 -56 -22 -112.5t-12 -85.5l-3 -28h-51l-3 51q-3 119 -122 119h-203l-105 -438q-12 -48 -12 -82q0 -55 40 -79.5t126 -24.5zM565 1595l406 369q11 -25 30.5 -66.5t78 -136.5 t114.5 -151q0 -19 -15.5 -36.5t-45.5 -17.5q-38 0 -74.5 39.5t-60.5 93.5t-39 103.5t-17 77.5l-299 -314z" />
<glyph unicode="&#xcb;" d="M598 70q68 0 123.5 9.5t97.5 30.5t72.5 42t58 55.5t43 58t37.5 62.5l43 -6l-100 -322q-510 6 -686 6l-271 -6l15 59l43 11q85 20 128.5 65.5t63.5 134.5l219 961q9 45 9 59q0 35 -22.5 50.5t-72.5 23.5l-65 10l14 60q107 -7 287 -7l653 7l-82 -306h-41q0 124 -66 180 t-233 56q-98 0 -159 -14l-138 -576h170q72 0 122 39.5t89 118.5l39 80h53q-50 -145 -77 -262q-13 -56 -22 -112.5t-12 -85.5l-3 -28h-51l-3 51q-3 119 -122 119h-203l-105 -438q-12 -48 -12 -82q0 -55 40 -79.5t126 -24.5zM715 1608q-36 0 -59 23t-23 59q0 44 31.5 79 t78.5 35q36 0 58 -23t22 -59q0 -43 -32 -78.5t-76 -35.5zM1063 1608q-36 0 -59 23t-23 59q0 44 32 79t79 35q36 0 57.5 -23t21.5 -59q0 -43 -32 -78.5t-76 -35.5z" />
<glyph unicode="&#xcc;" horiz-adv-x="763" d="M522 70l66 -11l-15 -59q-110 6 -286 6q-77 0 -145 -1.5t-97 -2.5l-29 -2l15 59l43 11q85 20 128.5 65.5t63.5 134.5l219 961q9 45 9 59q0 35 -22.5 50.5t-72.5 23.5l-65 10l14 60q107 -7 287 -7q75 0 142.5 1.5t97.5 3.5l30 2l-14 -60l-43 -10q-85 -20 -129 -66t-64 -135 l-219 -960q-8 -40 -8 -60q0 -35 22 -50t72 -23zM453 1901q0 25 14.5 42t30.5 21q191 -214 403 -362l-10 -27q-44 11 -115 44.5t-144.5 78t-126 100.5t-52.5 103z" />
<glyph unicode="&#xcd;" horiz-adv-x="763" d="M522 70l66 -11l-15 -59q-110 6 -286 6q-77 0 -145 -1.5t-97 -2.5l-29 -2l15 59l43 11q85 20 128.5 65.5t63.5 134.5l219 961q9 45 9 59q0 35 -22.5 50.5t-72.5 23.5l-65 10l14 60q107 -7 287 -7q75 0 142.5 1.5t97.5 3.5l30 2l-14 -60l-43 -10q-85 -20 -129 -66t-64 -135 l-219 -960q-8 -40 -8 -60q0 -35 22 -50t72 -23zM913 1901q0 -47 -52.5 -103t-126 -100.5t-144.5 -78t-115 -44.5q-8 21 -10 27q212 148 403 362q16 -4 30.5 -21t14.5 -42z" />
<glyph unicode="&#xce;" horiz-adv-x="763" d="M522 70l66 -11l-15 -59q-110 6 -286 6q-77 0 -145 -1.5t-97 -2.5l-29 -2l15 59l43 11q85 20 128.5 65.5t63.5 134.5l219 961q9 45 9 59q0 35 -22.5 50.5t-72.5 23.5l-65 10l14 60q107 -7 287 -7q75 0 142.5 1.5t97.5 3.5l30 2l-14 -60l-43 -10q-85 -20 -129 -66t-64 -135 l-219 -960q-8 -40 -8 -60q0 -35 22 -50t72 -23zM330 1595l405 369q11 -25 30.5 -66.5t78 -136.5t114.5 -151q0 -19 -15.5 -36.5t-45.5 -17.5q-38 0 -74.5 39.5t-60.5 93.5t-38.5 103.5t-16.5 77.5l-299 -314z" />
<glyph unicode="&#xcf;" horiz-adv-x="763" d="M522 70l66 -11l-15 -59q-110 6 -286 6q-77 0 -145 -1.5t-97 -2.5l-29 -2l15 59l43 11q85 20 128.5 65.5t63.5 134.5l219 961q9 45 9 59q0 35 -22.5 50.5t-72.5 23.5l-65 10l14 60q107 -7 287 -7q75 0 142.5 1.5t97.5 3.5l30 2l-14 -60l-43 -10q-85 -20 -129 -66t-64 -135 l-219 -960q-8 -40 -8 -60q0 -35 22 -50t72 -23zM477 1608q-36 0 -59 23t-23 59q0 44 32 79t79 35q36 0 58 -23t22 -59q0 -43 -32.5 -78.5t-76.5 -35.5zM825 1608q-36 0 -59 23t-23 59q0 44 32 79t79 35q36 0 58 -23t22 -59q0 -43 -32.5 -78.5t-76.5 -35.5z" />
<glyph unicode="&#xd0;" horiz-adv-x="1646" d="M287 6q-77 0 -145 -1.5t-97 -2.5l-29 -2l15 59l43 11q85 20 128.5 65.5t63.5 134.5l88 389l-219 -4l25 115q115 -2 219 -4l106 465q9 45 9 59q0 35 -22.5 50.5t-72.5 23.5l-65 10l14 60q60 -7 240 -7q51 0 162 3.5t149 3.5q171 0 310.5 -46t229.5 -125.5t138.5 -185 t48.5 -225.5q0 -258 -123 -451.5t-348.5 -297t-525.5 -103.5q-58 0 -169.5 3t-172.5 3zM698 1350l-135 -586q1 0 156 3t199 3l-27 -115q-29 0 -113.5 1t-159 2t-77.5 1l-92 -403q-13 -52 -13 -82q0 -55 40 -79.5t126 -24.5q172 0 320.5 49.5t259.5 141.5t175 233.5t64 316.5 q0 254 -143.5 403.5t-421.5 149.5q-86 0 -158 -14z" />
<glyph unicode="&#xd1;" horiz-adv-x="1669" d="M1391 1364l-88 10l14 60q149 -7 315 -7q57 0 113 1.5t83 3.5l27 2l-14 -60l-43 -10q-85 -20 -128.5 -66t-63.5 -135l-258 -1173l-64 -8l-704 1189l-199 -856q-29 -136 -29 -155q0 -79 111 -90l92 -11l-14 -59q-172 6 -299 6l-226 -6l15 59l43 11q85 20 128.5 65t63.5 135 l219 961q9 36 9 59q0 35 -22.5 50.5t-72.5 23.5l-65 10l14 60q115 -7 330 -7q0 -57 43 -131l602 -1024l184 916q11 50 11 67q0 53 -31.5 77t-95.5 32zM1081 1839q40 0 76.5 -15.5t59 -33.5t56.5 -33.5t70 -15.5q102 0 164 104l21 -33q-36 -85 -101.5 -134.5t-148.5 -49.5 q-42 0 -78.5 15.5t-58.5 33.5t-55.5 33.5t-69.5 15.5q-102 0 -164 -104l-21 33q36 85 101.5 134.5t148.5 49.5z" />
<glyph unicode="&#xd2;" horiz-adv-x="1554" d="M754 47q117 0 217 54.5t168 141.5t116.5 196.5t70.5 219.5t22 211q0 239 -123.5 375.5t-309.5 136.5q-117 0 -217 -54.5t-167.5 -141.5t-116 -196.5t-70.5 -219.5t-22 -211q0 -239 123 -375.5t309 -136.5zM1014 1462q240 0 389 -147.5t149 -403.5q0 -148 -45 -290 t-128.5 -259t-193 -206.5t-247 -139t-283.5 -49.5q-240 0 -389 147.5t-149 403.5q0 148 45 290t128.5 259t193 206.5t247 139t283.5 49.5zM821 1901q0 25 14.5 42t30.5 21q189 -212 404 -362l-10 -27q-44 11 -115 44.5t-144.5 78t-126.5 100.5t-53 103z" />
<glyph unicode="&#xd3;" horiz-adv-x="1556" d="M754 47q117 0 217 54.5t168 141.5t116.5 196.5t70.5 219.5t22 211q0 239 -123.5 375.5t-309.5 136.5q-117 0 -217 -54.5t-167.5 -141.5t-116 -196.5t-70.5 -219.5t-22 -211q0 -239 123 -375.5t309 -136.5zM1014 1462q240 0 389 -147.5t149 -403.5q0 -148 -45 -290 t-128.5 -259t-193 -206.5t-247 -139t-283.5 -49.5q-240 0 -389 147.5t-149 403.5q0 148 45 290t128.5 259t193 206.5t247 139t283.5 49.5zM1311 1901q0 -47 -53 -103t-126.5 -100.5t-144.5 -78t-115 -44.5q-8 21 -10 27q215 150 404 362q16 -4 30.5 -21t14.5 -42z" />
<glyph unicode="&#xd4;" horiz-adv-x="1556" d="M754 47q117 0 217 54.5t168 141.5t116.5 196.5t70.5 219.5t22 211q0 239 -123.5 375.5t-309.5 136.5q-117 0 -217 -54.5t-167.5 -141.5t-116 -196.5t-70.5 -219.5t-22 -211q0 -239 123 -375.5t309 -136.5zM1014 1462q240 0 389 -147.5t149 -403.5q0 -148 -45 -290 t-128.5 -259t-193 -206.5t-247 -139t-283.5 -49.5q-240 0 -389 147.5t-149 403.5q0 148 45 290t128.5 259t193 206.5t247 139t283.5 49.5zM707 1595l405 369q11 -25 30.5 -66.5t78 -136.5t114.5 -151q0 -19 -15.5 -36.5t-45.5 -17.5q-38 0 -74.5 39.5t-60.5 93.5t-39 103.5 t-17 77.5l-299 -314z" />
<glyph unicode="&#xd5;" horiz-adv-x="1556" d="M754 47q117 0 217 54.5t168 141.5t116.5 196.5t70.5 219.5t22 211q0 239 -123.5 375.5t-309.5 136.5q-117 0 -217 -54.5t-167.5 -141.5t-116 -196.5t-70.5 -219.5t-22 -211q0 -239 123 -375.5t309 -136.5zM1014 1462q240 0 389 -147.5t149 -403.5q0 -148 -45 -290 t-128.5 -259t-193 -206.5t-247 -139t-283.5 -49.5q-240 0 -389 147.5t-149 403.5q0 148 45 290t128.5 259t193 206.5t247 139t283.5 49.5zM913 1845q40 0 76.5 -15.5t59.5 -33.5t57 -33.5t70 -15.5q101 0 163 104l21 -32q-36 -85 -101.5 -135t-148.5 -50q-42 0 -78.5 15.5 t-58.5 34t-55.5 34t-69.5 15.5q-102 0 -164 -105l-20 33q36 85 101 134.5t148 49.5z" />
<glyph unicode="&#xd6;" horiz-adv-x="1556" d="M754 47q117 0 217 54.5t168 141.5t116.5 196.5t70.5 219.5t22 211q0 239 -123.5 375.5t-309.5 136.5q-117 0 -217 -54.5t-167.5 -141.5t-116 -196.5t-70.5 -219.5t-22 -211q0 -239 123 -375.5t309 -136.5zM1014 1462q240 0 389 -147.5t149 -403.5q0 -148 -45 -290 t-128.5 -259t-193 -206.5t-247 -139t-283.5 -49.5q-240 0 -389 147.5t-149 403.5q0 148 45 290t128.5 259t193 206.5t247 139t283.5 49.5zM860 1608q-36 0 -59 23t-23 59q0 44 32 79t79 35q36 0 58 -23t22 -59q0 -43 -32.5 -78.5t-76.5 -35.5zM1208 1608q-36 0 -59 23 t-23 59q0 44 32 79t79 35q36 0 58 -23t22 -59q0 -43 -32.5 -78.5t-76.5 -35.5z" />
<glyph unicode="&#xd7;" horiz-adv-x="1138" d="M907 6l-338 356l-338 -356l-90 94l340 353l-340 358l92 92l336 -356l336 356l94 -92l-342 -358l342 -353z" />
<glyph unicode="&#xd8;" horiz-adv-x="1556" d="M1014 1462q214 0 352 -114l104 114h129q-162 -169 -169 -176q122 -144 122 -375q0 -148 -45 -290t-128.5 -259t-193 -206.5t-247 -139t-283.5 -49.5q-210 0 -346 109l-98 -109h-129q68 70 162 170q-127 146 -127 381q0 148 45 290t128.5 259t193 206.5t247 139 t283.5 49.5zM379 281q207 216 434 462l434 474q-59 81 -145 123t-187 42q-117 0 -217 -54.5t-167.5 -141.5t-116 -196.5t-70.5 -219.5t-22 -211q0 -161 57 -278zM754 47q117 0 217 54.5t168 141.5t116.5 196.5t70.5 219.5t22 211q0 153 -56 271l-430 -457q-55 -59 -436 -479 q60 -76 145 -117t183 -41z" />
<glyph unicode="&#xd9;" horiz-adv-x="1628" d="M614 1163l-125 -534q-28 -128 -28 -215q0 -344 350 -344q105 0 182.5 32t132.5 100.5t91.5 159.5t66.5 224l146 645q8 40 8 59q0 35 -22.5 50.5t-72.5 23.5l-65 10l14 60q119 -9 250 -9q58 0 117 2.5t89 4.5l30 2l-15 -60l-43 -10q-85 -20 -128.5 -66t-63.5 -135 l-131 -585q-19 -82 -39 -148t-48 -131t-61.5 -113.5t-79.5 -90.5t-101 -69t-126 -42t-156 -15q-235 0 -373.5 106.5t-138.5 319.5q0 82 25 191l145 645q9 45 9 59q0 35 -22.5 50.5t-72.5 23.5l-65 10l14 60q107 -7 287 -7q75 0 142.5 1.5t97.5 3.5l30 2l-14 -60l-43 -10 q-85 -20 -129 -66t-64 -135zM883 1901q0 25 14.5 42t30.5 21q191 -214 403 -362l-10 -27q-44 11 -115 44.5t-144.5 78t-126 100.5t-52.5 103z" />
<glyph unicode="&#xda;" horiz-adv-x="1628" d="M614 1163l-125 -534q-28 -128 -28 -215q0 -344 350 -344q105 0 182.5 32t132.5 100.5t91.5 159.5t66.5 224l146 645q8 40 8 59q0 35 -22.5 50.5t-72.5 23.5l-65 10l14 60q119 -9 250 -9q58 0 117 2.5t89 4.5l30 2l-15 -60l-43 -10q-85 -20 -128.5 -66t-63.5 -135 l-131 -585q-19 -82 -39 -148t-48 -131t-61.5 -113.5t-79.5 -90.5t-101 -69t-126 -42t-156 -15q-235 0 -373.5 106.5t-138.5 319.5q0 82 25 191l145 645q9 45 9 59q0 35 -22.5 50.5t-72.5 23.5l-65 10l14 60q107 -7 287 -7q75 0 142.5 1.5t97.5 3.5l30 2l-14 -60l-43 -10 q-85 -20 -129 -66t-64 -135zM1380 1901q0 -47 -52.5 -103t-126 -100.5t-144.5 -78t-115 -44.5q-8 21 -10 27q212 148 403 362q16 -4 30.5 -21t14.5 -42z" />
<glyph unicode="&#xdb;" horiz-adv-x="1628" d="M614 1163l-125 -534q-28 -128 -28 -215q0 -344 350 -344q105 0 182.5 32t132.5 100.5t91.5 159.5t66.5 224l146 645q8 40 8 59q0 35 -22.5 50.5t-72.5 23.5l-65 10l14 60q119 -9 250 -9q58 0 117 2.5t89 4.5l30 2l-15 -60l-43 -10q-85 -20 -128.5 -66t-63.5 -135 l-131 -585q-19 -82 -39 -148t-48 -131t-61.5 -113.5t-79.5 -90.5t-101 -69t-126 -42t-156 -15q-235 0 -373.5 106.5t-138.5 319.5q0 82 25 191l145 645q9 45 9 59q0 35 -22.5 50.5t-72.5 23.5l-65 10l14 60q107 -7 287 -7q75 0 142.5 1.5t97.5 3.5l30 2l-14 -60l-43 -10 q-85 -20 -129 -66t-64 -135zM807 1595l405 369q11 -25 31 -66.5t78.5 -136.5t114.5 -151q0 -19 -16 -36.5t-46 -17.5q-38 0 -74.5 39.5t-60.5 93.5t-38.5 103.5t-16.5 77.5l-299 -314z" />
<glyph unicode="&#xdc;" horiz-adv-x="1628" d="M614 1163l-125 -534q-28 -128 -28 -215q0 -344 350 -344q105 0 182.5 32t132.5 100.5t91.5 159.5t66.5 224l146 645q8 40 8 59q0 35 -22.5 50.5t-72.5 23.5l-65 10l14 60q119 -9 250 -9q58 0 117 2.5t89 4.5l30 2l-15 -60l-43 -10q-85 -20 -128.5 -66t-63.5 -135 l-131 -585q-19 -82 -39 -148t-48 -131t-61.5 -113.5t-79.5 -90.5t-101 -69t-126 -42t-156 -15q-235 0 -373.5 106.5t-138.5 319.5q0 82 25 191l145 645q9 45 9 59q0 35 -22.5 50.5t-72.5 23.5l-65 10l14 60q107 -7 287 -7q75 0 142.5 1.5t97.5 3.5l30 2l-14 -60l-43 -10 q-85 -20 -129 -66t-64 -135zM936 1608q-36 0 -59 23t-23 59q0 44 32 79t79 35q36 0 57.5 -23t21.5 -59q0 -43 -32 -78.5t-76 -35.5zM1284 1608q-36 0 -59 23t-23 59q0 44 32 79t79 35q36 0 58 -23t22 -59q0 -43 -32.5 -78.5t-76.5 -35.5z" />
<glyph unicode="&#xdd;" horiz-adv-x="1423" d="M844 614l-94 -411q-9 -45 -9 -60q0 -35 22.5 -50t72.5 -23l65 -11l-14 -59q-111 6 -287 6q-77 0 -144.5 -1.5t-96.5 -2.5l-29 -2l14 59l43 11q85 20 129 65.5t64 134.5l84 365l-52 285q-15 80 -25.5 130.5t-25.5 106t-31.5 87t-39 59.5t-51.5 39.5t-66 11.5t-62.5 -11.5 t-54.5 -37.5l-10 47q36 46 92.5 78t120.5 32q49 0 90 -14.5t71 -38t54.5 -62t40 -76t29.5 -91.5t21.5 -97.5t16.5 -103.5l39 -268q6 15 24 55.5t55 112t80.5 146.5t102 154.5t118 141.5t130.5 101.5t137 39.5q63 0 101.5 -32t38.5 -91q0 -43 -35.5 -75.5t-71.5 -32.5 q-12 0 -18 2q2 8 2 18q0 26 -19 46t-61 20q-70 0 -164.5 -90t-175 -212t-141 -233t-80.5 -168zM1384 1835q0 -47 -52.5 -103t-126 -100.5t-144.5 -78t-115 -44.5q-8 21 -10 27q212 148 403 362q16 -4 30.5 -21t14.5 -42z" />
<glyph unicode="&#xde;" horiz-adv-x="1159" d="M522 70l66 -11l-15 -59q-110 6 -286 6q-77 0 -145 -1.5t-97 -2.5l-29 -2l15 59l43 11q85 20 128.5 65.5t63.5 134.5l219 961q9 45 9 59q0 35 -22.5 50.5t-72.5 23.5l-65 10l14 60q107 -7 287 -7q75 0 142.5 1.5t97.5 3.5l30 2l-14 -60l-43 -10q-85 -20 -129 -66t-64 -135 l-20 -96q10 3 47 20.5t74.5 28t81.5 10.5q157 0 265.5 -106.5t108.5 -274.5q0 -95 -39 -178t-103 -140t-146 -89.5t-168 -32.5q-73 0 -128 14.5t-91.5 29.5t-63.5 16l-37 -162q-8 -40 -8 -60q0 -35 22 -50t72 -23zM770 1038q-39 0 -93 -15.5t-61 -16.5l-129 -580 q24 0 92 -16.5t115 -16.5q138 0 230 105t92 247q0 134 -65.5 213.5t-180.5 79.5z" />
<glyph unicode="&#xdf;" horiz-adv-x="1122" d="M1141 1341q0 84 -45 124t-142 40q-70 0 -131 -35t-109.5 -100.5t-86.5 -145.5t-72 -184l-242 -737q-29 -88 -59.5 -169t-73 -176.5t-86.5 -175t-100.5 -156.5t-114.5 -130t-128 -85t-142 -32q-85 0 -125.5 35.5t-40.5 87.5q0 55 36 83t83 28l26 -2q-12 -27 -12 -51 q0 -38 25 -60t73 -22q122 0 212.5 128.5t168.5 387.5l252 835h-155l14 50l170 34l18 56q58 175 155.5 314t235.5 225.5t291 86.5q131 0 202 -64.5t71 -168.5q0 -84 -29 -153t-76 -114.5t-103.5 -83.5t-112.5 -69.5t-103 -63t-76 -73t-29 -90.5q0 -42 20.5 -83.5t50 -78.5 t59.5 -76.5t50.5 -91.5t20.5 -109q0 -70 -36 -130.5t-91 -98.5t-117 -59t-119 -21q-48 0 -85 8.5t-65 34t-28 66.5q0 52 36.5 83t86.5 31l21 -2q-13 -23 -13 -45q0 -31 31 -51t72 -20q76 0 122 32.5t46 104.5q0 46 -17.5 90.5t-43 82.5t-51 77t-43 90.5t-17.5 107.5 q0 60 26 111t67.5 90t92 76t100.5 77t91.5 85t67.5 108t26 137z" />
<glyph unicode="&#xe0;" horiz-adv-x="978" d="M766 102q78 0 190 185l31 -21q-20 -47 -48.5 -94.5t-67.5 -96.5t-88.5 -79.5t-100.5 -30.5q-107 0 -107 117q0 26 4 52.5t13 56t14 45t17.5 47t13.5 34.5h-8q-18 -37 -29 -59.5t-35 -63.5t-44.5 -68t-52 -60.5t-62.5 -53t-72 -33.5t-84 -14q-90 0 -135 64.5t-45 169.5 q0 122 49 249t128.5 226t188 162t219.5 63q37 0 69.5 -11t49 -22t39.5 -30q12 38 42.5 77t76.5 39q44 0 78 -30q-33 -38 -99.5 -183.5t-125 -322.5t-58.5 -269q0 -45 39 -45zM326 86q61 0 130.5 70t126.5 173.5t101.5 209t67.5 190.5q-39 92 -138 92q-102 0 -192.5 -89.5 t-141.5 -223.5t-51 -268q0 -82 21.5 -118t75.5 -36zM451 1370q0 25 14.5 42.5t30.5 21.5q193 -217 403 -363l-10 -27q-44 11 -115 44.5t-144.5 78t-126 100.5t-52.5 103z" />
<glyph unicode="&#xe1;" horiz-adv-x="978" d="M766 102q78 0 190 185l31 -21q-20 -47 -48.5 -94.5t-67.5 -96.5t-88.5 -79.5t-100.5 -30.5q-107 0 -107 117q0 26 4 52.5t13 56t14 45t17.5 47t13.5 34.5h-8q-18 -37 -29 -59.5t-35 -63.5t-44.5 -68t-52 -60.5t-62.5 -53t-72 -33.5t-84 -14q-90 0 -135 64.5t-45 169.5 q0 122 49 249t128.5 226t188 162t219.5 63q37 0 69.5 -11t49 -22t39.5 -30q12 38 42.5 77t76.5 39q44 0 78 -30q-33 -38 -99.5 -183.5t-125 -322.5t-58.5 -269q0 -45 39 -45zM326 86q61 0 130.5 70t126.5 173.5t101.5 209t67.5 190.5q-39 92 -138 92q-102 0 -192.5 -89.5 t-141.5 -223.5t-51 -268q0 -82 21.5 -118t75.5 -36zM1147 1370q0 -47 -52.5 -103t-126 -100.5t-144.5 -78t-115 -44.5q-9 21 -11 27q213 148 404 363q16 -4 30.5 -21.5t14.5 -42.5z" />
<glyph unicode="&#xe2;" horiz-adv-x="978" d="M766 102q78 0 190 185l31 -21q-20 -47 -48.5 -94.5t-67.5 -96.5t-88.5 -79.5t-100.5 -30.5q-107 0 -107 117q0 26 4 52.5t13 56t14 45t17.5 47t13.5 34.5h-8q-18 -37 -29 -59.5t-35 -63.5t-44.5 -68t-52 -60.5t-62.5 -53t-72 -33.5t-84 -14q-90 0 -135 64.5t-45 169.5 q0 122 49 249t128.5 226t188 162t219.5 63q37 0 69.5 -11t49 -22t39.5 -30q12 38 42.5 77t76.5 39q44 0 78 -30q-33 -38 -99.5 -183.5t-125 -322.5t-58.5 -269q0 -45 39 -45zM326 86q61 0 130.5 70t126.5 173.5t101.5 209t67.5 190.5q-39 92 -138 92q-102 0 -192.5 -89.5 t-141.5 -223.5t-51 -268q0 -82 21.5 -118t75.5 -36zM401 1065l406 369q11 -26 30.5 -67t78 -136.5t114.5 -151.5q0 -19 -15.5 -36t-45.5 -17q-38 0 -74.5 39t-60.5 93t-39 103.5t-17 77.5l-299 -313z" />
<glyph unicode="&#xe3;" horiz-adv-x="978" d="M766 102q78 0 190 185l31 -21q-20 -47 -48.5 -94.5t-67.5 -96.5t-88.5 -79.5t-100.5 -30.5q-107 0 -107 117q0 26 4 52.5t13 56t14 45t17.5 47t13.5 34.5h-8q-18 -37 -29 -59.5t-35 -63.5t-44.5 -68t-52 -60.5t-62.5 -53t-72 -33.5t-84 -14q-90 0 -135 64.5t-45 169.5 q0 122 49 249t128.5 226t188 162t219.5 63q37 0 69.5 -11t49 -22t39.5 -30q12 38 42.5 77t76.5 39q44 0 78 -30q-33 -38 -99.5 -183.5t-125 -322.5t-58.5 -269q0 -45 39 -45zM326 86q61 0 130.5 70t126.5 173.5t101.5 209t67.5 190.5q-39 92 -138 92q-102 0 -192.5 -89.5 t-141.5 -223.5t-51 -268q0 -82 21.5 -118t75.5 -36zM670 1309q40 0 76.5 -15.5t59 -34t56.5 -34t70 -15.5q102 0 164 105l20 -33q-36 -85 -101.5 -134.5t-148.5 -49.5q-42 0 -78.5 15.5t-58.5 33.5t-55.5 33.5t-69.5 15.5q-102 0 -164 -104l-20 32q36 85 101.5 135t148.5 50 z" />
<glyph unicode="&#xe4;" horiz-adv-x="978" d="M766 102q78 0 190 185l31 -21q-20 -47 -48.5 -94.5t-67.5 -96.5t-88.5 -79.5t-100.5 -30.5q-107 0 -107 117q0 26 4 52.5t13 56t14 45t17.5 47t13.5 34.5h-8q-18 -37 -29 -59.5t-35 -63.5t-44.5 -68t-52 -60.5t-62.5 -53t-72 -33.5t-84 -14q-90 0 -135 64.5t-45 169.5 q0 122 49 249t128.5 226t188 162t219.5 63q37 0 69.5 -11t49 -22t39.5 -30q12 38 42.5 77t76.5 39q44 0 78 -30q-33 -38 -99.5 -183.5t-125 -322.5t-58.5 -269q0 -45 39 -45zM326 86q61 0 130.5 70t126.5 173.5t101.5 209t67.5 190.5q-39 92 -138 92q-102 0 -192.5 -89.5 t-141.5 -223.5t-51 -268q0 -82 21.5 -118t75.5 -36zM602 1118q-36 0 -59 23t-23 59q0 44 32 79.5t79 35.5q36 0 58 -23t22 -59q0 -43 -32.5 -79t-76.5 -36zM950 1118q-36 0 -59 23t-23 59q0 44 32 79.5t79 35.5q36 0 58 -23t22 -59q0 -43 -32.5 -79t-76.5 -36z" />
<glyph unicode="&#xe5;" horiz-adv-x="978" d="M766 102q78 0 190 185l31 -21q-20 -47 -48.5 -94.5t-67.5 -96.5t-88.5 -79.5t-100.5 -30.5q-107 0 -107 117q0 26 4 52.5t13 56t14 45t17.5 47t13.5 34.5h-8q-18 -37 -29 -59.5t-35 -63.5t-44.5 -68t-52 -60.5t-62.5 -53t-72 -33.5t-84 -14q-90 0 -135 64.5t-45 169.5 q0 122 49 249t128.5 226t188 162t219.5 63q37 0 69.5 -11t49 -22t39.5 -30q12 38 42.5 77t76.5 39q44 0 78 -30q-33 -38 -99.5 -183.5t-125 -322.5t-58.5 -269q0 -45 39 -45zM326 86q61 0 130.5 70t126.5 173.5t101.5 209t67.5 190.5q-39 92 -138 92q-102 0 -192.5 -89.5 t-141.5 -223.5t-51 -268q0 -82 21.5 -118t75.5 -36zM805 1403q-61 0 -98 -52.5t-37 -111.5q0 -49 27.5 -71.5t70.5 -22.5q61 0 98 52.5t37 111.5q0 49 -27.5 71.5t-70.5 22.5zM727 1085q-60 0 -96.5 33t-36.5 92q0 101 77.5 176.5t174.5 75.5q60 0 96.5 -33t36.5 -92 q0 -101 -77.5 -176.5t-174.5 -75.5z" />
<glyph unicode="&#xe6;" horiz-adv-x="1345" d="M1384 813q0 -118 -142 -208.5t-435 -166.5q-31 -109 -31 -200q0 -65 34 -109.5t108 -44.5q87 0 173.5 64t133.5 133l30 -23q-15 -26 -31 -51t-55.5 -72.5t-81 -81t-103.5 -60t-126 -26.5q-122 0 -186 65t-64 183q0 25 2 39q-30 -56 -59 -99.5t-72.5 -90.5t-99 -73 t-117.5 -26q-90 0 -135 64.5t-45 169.5q0 122 49.5 249t129 226t188 162t219.5 63q67 0 118.5 -27t81.5 -67q159 149 359 149q81 0 119 -41.5t38 -99.5zM338 86q61 0 130.5 70t126.5 173.5t101.5 209t67.5 190.5q-39 92 -137 92q-102 0 -192.5 -89.5t-141.5 -223.5t-51 -268 q0 -82 21 -118t75 -36zM1227 799q0 35 -18.5 54t-51.5 19q-141 0 -262 -217q-6 -13 -68 -161q55 17 97 32t103 44t101 59t69.5 75t29.5 95z" />
<glyph unicode="&#xe7;" horiz-adv-x="808" d="M731 715q12 34 12 57q0 84 -104 84q-69 0 -130.5 -40.5t-106 -106.5t-77.5 -147.5t-49 -165t-16 -158.5q0 -74 34.5 -114t96.5 -40q89 0 169 57.5t140 139.5l31 -23q-19 -38 -41.5 -74t-58 -77t-75.5 -70.5t-94 -49.5t-112 -20q-5 0 -14 1t-14 1q-29 -29 -29 -67 q0 -23 17 -44.5t38 -36.5t38 -39.5t17 -53.5q0 -64 -47.5 -110.5t-107 -65.5t-115.5 -19q-59 0 -95 24t-36 64q0 39 28.5 63.5t63.5 24.5q25 0 35 -10q-35 -23 -35 -57q0 -22 18 -38t58 -16q45 0 79 21.5t34 60.5q0 25 -13.5 47.5t-30.5 37.5t-30.5 41.5t-13.5 58.5 q0 70 79 118q-182 33 -182 242q0 99 32 204.5t92.5 200t139 170t180 120t207.5 44.5q61 0 105.5 -27.5t44.5 -84.5t-40 -94t-93 -37q-17 0 -29 4z" />
<glyph unicode="&#xe8;" horiz-adv-x="827" d="M709 799q0 35 -18.5 54t-51.5 19q-60 0 -117 -40.5t-99.5 -105t-70 -120.5t-47.5 -112q404 119 404 305zM866 813q0 -118 -142 -208.5t-435 -166.5q-31 -108 -31 -200q0 -65 34 -109.5t107 -44.5q87 0 174 64t134 133l30 -23q-15 -26 -31 -51t-55.5 -72.5t-81 -81 t-103.5 -60t-126 -26.5q-122 0 -186 65t-64 183q0 89 27 189t81.5 197.5t127.5 176.5t173 127.5t210 48.5q81 0 119 -41.5t38 -99.5zM502 1370q0 25 14.5 42.5t30.5 21.5q193 -217 403 -363l-10 -27q-44 11 -115 44.5t-144.5 78t-126 100.5t-52.5 103z" />
<glyph unicode="&#xe9;" horiz-adv-x="827" d="M709 799q0 35 -18.5 54t-51.5 19q-60 0 -117 -40.5t-99.5 -105t-70 -120.5t-47.5 -112q404 119 404 305zM866 813q0 -118 -142 -208.5t-435 -166.5q-31 -108 -31 -200q0 -65 34 -109.5t107 -44.5q87 0 174 64t134 133l30 -23q-15 -26 -31 -51t-55.5 -72.5t-81 -81 t-103.5 -60t-126 -26.5q-122 0 -186 65t-64 183q0 89 27 189t81.5 197.5t127.5 176.5t173 127.5t210 48.5q81 0 119 -41.5t38 -99.5zM1085 1370q0 -47 -52.5 -103t-126 -100.5t-144.5 -78t-115 -44.5q-8 21 -10 27q210 146 403 363q16 -4 30.5 -21.5t14.5 -42.5z" />
<glyph unicode="&#xea;" horiz-adv-x="827" d="M709 799q0 35 -18.5 54t-51.5 19q-60 0 -117 -40.5t-99.5 -105t-70 -120.5t-47.5 -112q404 119 404 305zM866 813q0 -118 -142 -208.5t-435 -166.5q-31 -108 -31 -200q0 -65 34 -109.5t107 -44.5q87 0 174 64t134 133l30 -23q-15 -26 -31 -51t-55.5 -72.5t-81 -81 t-103.5 -60t-126 -26.5q-122 0 -186 65t-64 183q0 89 27 189t81.5 197.5t127.5 176.5t173 127.5t210 48.5q81 0 119 -41.5t38 -99.5zM373 1065l405 369q11 -26 30.5 -67t78 -136.5t114.5 -151.5q0 -19 -15.5 -36t-45.5 -17q-50 0 -95.5 66t-69 136.5t-25.5 110.5l-299 -313z " />
<glyph unicode="&#xeb;" horiz-adv-x="827" d="M709 799q0 35 -18.5 54t-51.5 19q-60 0 -117 -40.5t-99.5 -105t-70 -120.5t-47.5 -112q404 119 404 305zM866 813q0 -118 -142 -208.5t-435 -166.5q-31 -108 -31 -200q0 -65 34 -109.5t107 -44.5q87 0 174 64t134 133l30 -23q-15 -26 -31 -51t-55.5 -72.5t-81 -81 t-103.5 -60t-126 -26.5q-122 0 -186 65t-64 183q0 89 27 189t81.5 197.5t127.5 176.5t173 127.5t210 48.5q81 0 119 -41.5t38 -99.5zM561 1118q-36 0 -59 23t-23 59q0 44 32 79.5t79 35.5q36 0 58 -23t22 -59q0 -43 -32.5 -79t-76.5 -36zM909 1118q-36 0 -59 23t-23 59 q0 44 32 79.5t79 35.5q36 0 58 -23t22 -59q0 -43 -32.5 -79t-76.5 -36z" />
<glyph unicode="&#xec;" horiz-adv-x="571" d="M561 952l-242 -628q-55 -146 -55 -193q0 -29 27 -29q35 0 118.5 73t120.5 126l31 -20q-36 -65 -96.5 -135t-140.5 -124.5t-146 -54.5q-39 0 -58.5 18t-19.5 60q0 84 52 225l149 420q14 37 14 66q0 33 -31 45t-100 12v45q22 1 60 4.5t138 27.5t179 62zM199 1370 q0 25 14.5 42.5t30.5 21.5q193 -217 403 -363l-10 -27q-44 11 -115 44.5t-144.5 78t-126 100.5t-52.5 103z" />
<glyph unicode="&#xed;" horiz-adv-x="571" d="M561 952l-242 -628q-55 -146 -55 -193q0 -29 27 -29q35 0 118.5 73t120.5 126l31 -20q-36 -65 -96.5 -135t-140.5 -124.5t-146 -54.5q-39 0 -58.5 18t-19.5 60q0 84 52 225l149 420q14 37 14 66q0 33 -31 45t-100 12v45q22 1 60 4.5t138 27.5t179 62zM770 1370 q0 -47 -52.5 -103t-126 -100.5t-144.5 -78t-115 -44.5q-8 21 -10 27q210 146 403 363q16 -4 30.5 -21.5t14.5 -42.5z" />
<glyph unicode="&#xee;" horiz-adv-x="571" d="M561 952l-242 -628q-55 -146 -55 -193q0 -29 27 -29q35 0 118.5 73t120.5 126l31 -20q-36 -65 -96.5 -135t-140.5 -124.5t-146 -54.5q-39 0 -58.5 18t-19.5 60q0 84 52 225l149 420q14 37 14 66q0 33 -31 45t-100 12v45q22 1 60 4.5t138 27.5t179 62zM188 1065l406 369 q11 -26 30.5 -67t78 -136.5t114.5 -151.5q0 -19 -15.5 -36t-45.5 -17q-38 0 -74.5 39t-60.5 93t-39 103.5t-17 77.5l-299 -313z" />
<glyph unicode="&#xef;" horiz-adv-x="571" d="M561 952l-242 -628q-55 -146 -55 -193q0 -29 27 -29q35 0 118.5 73t120.5 126l31 -20q-36 -65 -96.5 -135t-140.5 -124.5t-146 -54.5q-39 0 -58.5 18t-19.5 60q0 84 52 225l149 420q14 37 14 66q0 33 -31 45t-100 12v45q22 1 60 4.5t138 27.5t179 62zM305 1118 q-36 0 -59 23t-23 59q0 44 32 79.5t79 35.5q36 0 58 -23t22 -59q0 -43 -32.5 -79t-76.5 -36zM653 1118q-36 0 -59 23t-23 59q0 44 32 79.5t79 35.5q36 0 58 -23t22 -59q0 -43 -32.5 -79t-76.5 -36z" />
<glyph unicode="&#xf0;" horiz-adv-x="911" d="M330 -33q-109 0 -173.5 76t-64.5 209q0 90 27.5 189t79 189.5t119 163.5t155 116.5t178.5 43.5q87 0 146 -47q4 32 4 60q0 87 -33 178l-223 -94l-10 75l200 86q-34 79 -125 131t-180 52l55 61q102 0 207 -54t156 -142l244 102l10 -76l-223 -94q51 -122 51 -293 q0 -187 -62 -405q-27 -101 -78.5 -194t-120 -168t-157.5 -120t-182 -45zM389 43q66 0 130 62t107.5 153.5t70 196.5t26.5 192q0 230 -129 230q-88 0 -167.5 -103.5t-123 -242t-43.5 -257.5q0 -231 129 -231z" />
<glyph unicode="&#xf1;" horiz-adv-x="1083" d="M815 102q58 0 176 168l31 -22q-28 -51 -59.5 -96t-73 -89t-91.5 -70t-100 -26q-39 0 -58 17.5t-19 60.5q0 81 69 279l123 350q25 73 25 102q0 41 -31 41q-73 0 -174.5 -100.5t-186 -236t-144.5 -277t-60 -219.5q-25 -17 -74 -17q-36 0 -57 19.5t-21 52.5q0 26 10 59 l187 592q14 47 14 66q0 33 -31 45t-100 12v45q22 1 60 4.5t138 27.5t179 62q-219 -540 -234 -583h9q47 86 95 163t108.5 156.5t118.5 136.5t123.5 93t125.5 36q58 0 83 -25.5t25 -76.5q0 -76 -38 -180l-123 -348q-56 -157 -56 -193q0 -29 31 -29zM707 1309q40 0 76.5 -15.5 t59 -34t56.5 -34t70 -15.5q102 0 164 105l20 -33q-36 -85 -101.5 -134.5t-148.5 -49.5q-42 0 -78.5 15.5t-58.5 33.5t-55.5 33.5t-69.5 15.5q-102 0 -164 -104l-20 32q36 85 101.5 135t148.5 50z" />
<glyph unicode="&#xf2;" horiz-adv-x="890" d="M330 -33q-109 0 -173.5 76t-64.5 209q0 90 27.5 189t79 189.5t119 163.5t155 116.5t178.5 43.5q110 0 175 -75.5t65 -210.5q0 -114 -44 -237.5t-117 -226.5t-179.5 -170t-220.5 -67zM389 43q66 0 130 62t107.5 153.5t70 196.5t26.5 192q0 230 -129 230 q-88 0 -167.5 -103.5t-123 -242t-43.5 -257.5q0 -231 129 -231zM479 1370q0 25 14.5 42.5t30.5 21.5q191 -215 404 -363l-10 -27q-44 11 -115 44.5t-144.5 78t-126.5 100.5t-53 103z" />
<glyph unicode="&#xf3;" horiz-adv-x="890" d="M330 -33q-109 0 -173.5 76t-64.5 209q0 90 27.5 189t79 189.5t119 163.5t155 116.5t178.5 43.5q110 0 175 -75.5t65 -210.5q0 -114 -44 -237.5t-117 -226.5t-179.5 -170t-220.5 -67zM389 43q66 0 130 62t107.5 153.5t70 196.5t26.5 192q0 230 -129 230 q-88 0 -167.5 -103.5t-123 -242t-43.5 -257.5q0 -231 129 -231zM1061 1370q0 -47 -52.5 -103t-126 -100.5t-144.5 -78t-115 -44.5q-9 21 -11 27q213 148 404 363q16 -4 30.5 -21.5t14.5 -42.5z" />
<glyph unicode="&#xf4;" horiz-adv-x="890" d="M330 -33q-109 0 -173.5 76t-64.5 209q0 90 27.5 189t79 189.5t119 163.5t155 116.5t178.5 43.5q110 0 175 -75.5t65 -210.5q0 -114 -44 -237.5t-117 -226.5t-179.5 -170t-220.5 -67zM389 43q66 0 130 62t107.5 153.5t70 196.5t26.5 192q0 230 -129 230 q-88 0 -167.5 -103.5t-123 -242t-43.5 -257.5q0 -231 129 -231zM395 1065l406 369q11 -26 30.5 -67t78 -136.5t114.5 -151.5q0 -19 -15.5 -36t-45.5 -17q-38 0 -74.5 39t-60.5 93t-39 103.5t-17 77.5l-299 -313z" />
<glyph unicode="&#xf5;" horiz-adv-x="890" d="M330 -33q-109 0 -173.5 76t-64.5 209q0 90 27.5 189t79 189.5t119 163.5t155 116.5t178.5 43.5q110 0 175 -75.5t65 -210.5q0 -114 -44 -237.5t-117 -226.5t-179.5 -170t-220.5 -67zM389 43q66 0 130 62t107.5 153.5t70 196.5t26.5 192q0 230 -129 230 q-88 0 -167.5 -103.5t-123 -242t-43.5 -257.5q0 -231 129 -231zM641 1309q40 0 76.5 -15.5t59 -34t56.5 -34t70 -15.5q102 0 164 105l20 -33q-36 -85 -101 -134.5t-148 -49.5q-42 0 -78.5 15.5t-59 33.5t-56 33.5t-69.5 15.5q-101 0 -163 -104l-21 32q36 85 101.5 135 t148.5 50z" />
<glyph unicode="&#xf6;" horiz-adv-x="890" d="M330 -33q-109 0 -173.5 76t-64.5 209q0 90 27.5 189t79 189.5t119 163.5t155 116.5t178.5 43.5q110 0 175 -75.5t65 -210.5q0 -114 -44 -237.5t-117 -226.5t-179.5 -170t-220.5 -67zM389 43q66 0 130 62t107.5 153.5t70 196.5t26.5 192q0 230 -129 230 q-88 0 -167.5 -103.5t-123 -242t-43.5 -257.5q0 -231 129 -231zM575 1118q-36 0 -58.5 23t-22.5 59q0 44 31.5 79.5t78.5 35.5q36 0 58 -23t22 -59q0 -43 -32.5 -79t-76.5 -36zM924 1118q-36 0 -59 23t-23 59q0 44 31.5 79.5t78.5 35.5q36 0 58 -23t22 -59q0 -43 -32 -79 t-76 -36z" />
<glyph unicode="&#xf7;" horiz-adv-x="933" d="M596 104q0 -56 -37 -93.5t-92 -37.5q-56 0 -92.5 37t-36.5 94q0 54 37 90.5t92 36.5q54 0 91.5 -36.5t37.5 -90.5zM596 803q0 -57 -37 -94t-92 -37q-56 0 -92.5 37t-36.5 94q0 54 37 90.5t92 36.5q54 0 91.5 -36.5t37.5 -90.5zM920 391h-904v121h904v-121z" />
<glyph unicode="&#xf8;" horiz-adv-x="890" d="M330 -33q-118 0 -183 84q-48 -48 -79 -84h-123l164 166q-17 59 -17 119q0 90 27.5 189t79 189.5t119 163.5t155 116.5t178.5 43.5q115 0 178 -82l78 80h129q-107 -100 -164 -157q19 -59 19 -127q0 -114 -44 -237.5t-117 -226.5t-179.5 -170t-220.5 -67zM389 43 q66 0 130 62t107.5 153.5t70 196.5t26.5 192q-44 -44 -88.5 -88t-84 -84t-50.5 -51l-234 -244q25 -137 123 -137zM260 289l453 463q-12 61 -42.5 93t-76.5 32q-65 0 -127.5 -59.5t-106 -148t-71 -191t-29.5 -189.5z" />
<glyph unicode="&#xf9;" horiz-adv-x="1015" d="M297 819q-58 0 -176 -168l-31 21q28 51 60 96.5t73 89.5t91 70t100 26q39 0 58.5 -18t19.5 -62q0 -75 -70 -276l-123 -352q-25 -70 -25 -103q0 -39 31 -39q73 0 174.5 100.5t186 236.5t144.5 277.5t60 219.5q21 16 70 16q36 0 57 -19t21 -54q0 -25 -10 -58l-193 -592 q-14 -47 -14 -65q0 -33 35 -45t106 -12v-46q-22 -1 -60 -4.5t-138 -27.5t-179 -62q208 511 234 584h-8q-47 -86 -95 -163t-108.5 -156.5t-119 -137t-124 -93.5t-125.5 -36q-58 0 -83 25.5t-25 77.5q0 75 39 178l122 350q56 157 56 193q0 28 -31 28zM422 1370q0 25 14.5 42.5 t30.5 21.5q193 -217 403 -363l-10 -27q-44 11 -115 44.5t-144.5 78t-126 100.5t-52.5 103z" />
<glyph unicode="&#xfa;" horiz-adv-x="1015" d="M297 819q-58 0 -176 -168l-31 21q28 51 60 96.5t73 89.5t91 70t100 26q39 0 58.5 -18t19.5 -62q0 -75 -70 -276l-123 -352q-25 -70 -25 -103q0 -39 31 -39q73 0 174.5 100.5t186 236.5t144.5 277.5t60 219.5q21 16 70 16q36 0 57 -19t21 -54q0 -25 -10 -58l-193 -592 q-14 -47 -14 -65q0 -33 35 -45t106 -12v-46q-22 -1 -60 -4.5t-138 -27.5t-179 -62q208 511 234 584h-8q-47 -86 -95 -163t-108.5 -156.5t-119 -137t-124 -93.5t-125.5 -36q-58 0 -83 25.5t-25 77.5q0 75 39 178l122 350q56 157 56 193q0 28 -31 28zM1106 1370 q0 -47 -52.5 -103t-126 -100.5t-144.5 -78t-115 -44.5q-9 21 -11 27q213 148 404 363q16 -4 30.5 -21.5t14.5 -42.5z" />
<glyph unicode="&#xfb;" horiz-adv-x="1015" d="M297 819q-58 0 -176 -168l-31 21q28 51 60 96.5t73 89.5t91 70t100 26q39 0 58.5 -18t19.5 -62q0 -75 -70 -276l-123 -352q-25 -70 -25 -103q0 -39 31 -39q73 0 174.5 100.5t186 236.5t144.5 277.5t60 219.5q21 16 70 16q36 0 57 -19t21 -54q0 -25 -10 -58l-193 -592 q-14 -47 -14 -65q0 -33 35 -45t106 -12v-46q-22 -1 -60 -4.5t-138 -27.5t-179 -62q208 511 234 584h-8q-47 -86 -95 -163t-108.5 -156.5t-119 -137t-124 -93.5t-125.5 -36q-58 0 -83 25.5t-25 77.5q0 75 39 178l122 350q56 157 56 193q0 28 -31 28zM428 1065l406 369 q11 -26 30.5 -67t78 -136.5t114.5 -151.5q0 -19 -16 -36t-46 -17q-50 0 -95.5 66t-69 136.5t-25.5 110.5l-299 -313z" />
<glyph unicode="&#xfc;" horiz-adv-x="1015" d="M297 819q-58 0 -176 -168l-31 21q28 51 60 96.5t73 89.5t91 70t100 26q39 0 58.5 -18t19.5 -62q0 -75 -70 -276l-123 -352q-25 -70 -25 -103q0 -39 31 -39q73 0 174.5 100.5t186 236.5t144.5 277.5t60 219.5q21 16 70 16q36 0 57 -19t21 -54q0 -25 -10 -58l-193 -592 q-14 -47 -14 -65q0 -33 35 -45t106 -12v-46q-22 -1 -60 -4.5t-138 -27.5t-179 -62q208 511 234 584h-8q-47 -86 -95 -163t-108.5 -156.5t-119 -137t-124 -93.5t-125.5 -36q-58 0 -83 25.5t-25 77.5q0 75 39 178l122 350q56 157 56 193q0 28 -31 28zM584 1118q-36 0 -59 23 t-23 59q0 44 31.5 79.5t78.5 35.5q36 0 58 -23t22 -59q0 -43 -32 -79t-76 -36zM932 1118q-36 0 -59 23t-23 59q0 44 32 79.5t79 35.5q36 0 57.5 -23t21.5 -59q0 -43 -32 -79t-76 -36z" />
<glyph unicode="&#xfd;" horiz-adv-x="999" d="M1030 811q0 -91 -56 -225.5t-148 -279t-216.5 -289t-254 -258.5t-268 -185.5t-251.5 -71.5q-61 0 -97 29.5t-36 79.5q0 44 26.5 73.5t65.5 39.5q19 -66 109 -66q146 0 280.5 79.5t173.5 160.5q13 30 13 176q0 90 -7 212t-14.5 206.5t-17.5 181t-10 98.5q-3 47 -25 47 q-26 0 -53 -28t-47 -68.5t-29.5 -63t-13.5 -34.5l-33 4q4 28 15.5 65t35 83.5t53 85t74 65t94.5 26.5q49 0 65.5 -33t20.5 -94q23 -414 23 -821q137 131 248.5 340t111.5 354q0 51 -22.5 89t-67.5 45q9 54 44.5 86t82.5 32q60 0 95.5 -39.5t35.5 -101.5zM1096 1370 q0 -47 -53 -103t-126.5 -100.5t-144.5 -78t-115 -44.5q-8 21 -10 27q213 148 404 363q16 -4 30.5 -21.5t14.5 -42.5z" />
<glyph unicode="&#xfe;" horiz-adv-x="1048" d="M723 821q-33 0 -71.5 -10.5t-60.5 -20.5l-22 -10l-215 -637q0 -4 2 -11t10.5 -24t21 -30t38.5 -24t59 -11q75 0 150 59.5t129 147t87.5 189.5t33.5 186q0 29 -3.5 54.5t-14.5 52.5t-28.5 46t-47 31t-68.5 12zM420 809l158 463q14 42 14 67q0 32 -31.5 45t-99.5 13v45 q22 1 60 4.5t138 27.5t179 62l-238 -672q69 35 182 35q127 0 198 -71t71 -183q0 -83 -31.5 -178t-89.5 -182.5t-132 -159.5t-167 -115t-187 -43q-51 0 -91 14.5t-54 34.5l-131 -374q-31 -87 -31 -140q0 -38 23 -57.5t80 -28.5l98 -16v-51h-600v51l47 14q87 26 140.5 84 t92.5 166l375 1061q-53 -24 -111 -57t-90 -54l-32 -22l-19 49q115 88 279 168z" />
<glyph unicode="&#xff;" horiz-adv-x="999" d="M1030 811q0 -91 -56 -225.5t-148 -279t-216.5 -289t-254 -258.5t-268 -185.5t-251.5 -71.5q-61 0 -97 29.5t-36 79.5q0 44 26.5 73.5t65.5 39.5q19 -66 109 -66q146 0 280.5 79.5t173.5 160.5q13 30 13 176q0 90 -7 212t-14.5 206.5t-17.5 181t-10 98.5q-3 47 -25 47 q-26 0 -53 -28t-47 -68.5t-29.5 -63t-13.5 -34.5l-33 4q4 28 15.5 65t35 83.5t53 85t74 65t94.5 26.5q49 0 65.5 -33t20.5 -94q23 -414 23 -821q137 131 248.5 340t111.5 354q0 51 -22.5 89t-67.5 45q9 54 44.5 86t82.5 32q60 0 95.5 -39.5t35.5 -101.5zM553 1118 q-36 0 -59 23t-23 59q0 44 32 79.5t79 35.5q36 0 58 -23t22 -59q0 -43 -32.5 -79t-76.5 -36zM901 1118q-36 0 -59 23t-23 59q0 44 32 79.5t79 35.5q36 0 58 -23t22 -59q0 -43 -32.5 -79t-76.5 -36z" />
<glyph unicode="&#x152;" horiz-adv-x="1880" d="M1321 70q68 0 123.5 9.5t97.5 30.5t72.5 42t58 55.5t43 58t37.5 62.5l43 -6l-100 -322q-510 6 -686 6q-78 0 -109 -2q-125 -37 -246 -37q-240 0 -389 147.5t-149 403.5q0 148 45 290t128.5 259t193 206.5t247 139t283.5 49.5q111 0 207 -35h137l653 7l-82 -306h-41 q0 124 -66 180t-233 56q-98 0 -159 -14l-138 -576h170q72 0 122 39.5t89 118.5l39 80h53q-50 -145 -77 -262q-13 -56 -22 -112.5t-12 -85.5l-3 -28h-52l-2 51q-3 119 -122 119h-203l-105 -438q-12 -48 -12 -82q0 -55 40 -79.5t126 -24.5zM754 47q90 0 149.5 52t81.5 147 l211 893q6 27 6 51q0 92 -80 142t-207 50q-117 0 -217 -54.5t-167.5 -141.5t-116 -196.5t-70.5 -219.5t-22 -211q0 -239 123 -375.5t309 -136.5z" />
<glyph unicode="&#x153;" horiz-adv-x="1404" d="M1444 813q0 -118 -142.5 -208t-435.5 -167q-30 -105 -30 -200q0 -65 34 -109.5t107 -44.5q87 0 173.5 64t133.5 133l31 -23q-15 -26 -31 -51t-55.5 -72.5t-81 -81t-103.5 -60t-126 -26.5q-97 0 -159 46.5t-77 125.5q-67 -77 -158.5 -124.5t-183.5 -47.5q-109 0 -173.5 76 t-64.5 209q0 90 27.5 189t79.5 189.5t119.5 163.5t155 116.5t178.5 43.5q86 0 145 -57t78 -152q78 92 183 150.5t218 58.5q81 0 119.5 -41.5t38.5 -99.5zM399 43q66 0 130 62t107.5 153.5t70 196.5t26.5 192q0 230 -129 230q-88 0 -167.5 -103.5t-123 -242t-43.5 -257.5 q0 -231 129 -231zM1286 799q0 35 -18 54t-51 19q-60 0 -117 -40.5t-99.5 -105t-70 -120.5t-47.5 -112q54 16 96.5 31t104 43.5t102 59t70.5 76t30 95.5z" />
<glyph unicode="&#x178;" horiz-adv-x="1423" d="M844 614l-94 -411q-9 -45 -9 -60q0 -35 22.5 -50t72.5 -23l65 -11l-14 -59q-111 6 -287 6q-77 0 -144.5 -1.5t-96.5 -2.5l-29 -2l14 59l43 11q85 20 129 65.5t64 134.5l84 365l-52 285q-15 80 -25.5 130.5t-25.5 106t-31.5 87t-39 59.5t-51.5 39.5t-66 11.5t-62.5 -11.5 t-54.5 -37.5l-10 47q36 46 92.5 78t120.5 32q49 0 90 -14.5t71 -38t54.5 -62t40 -76t29.5 -91.5t21.5 -97.5t16.5 -103.5l39 -268q6 15 24 55.5t55 112t80.5 146.5t102 154.5t118 141.5t130.5 101.5t137 39.5q63 0 101.5 -32t38.5 -91q0 -43 -35.5 -75.5t-71.5 -32.5 q-12 0 -18 2q2 8 2 18q0 26 -19 46t-61 20q-70 0 -164.5 -90t-175 -212t-141 -233t-80.5 -168zM838 1608q-36 0 -59 23t-23 59q0 44 31.5 79t78.5 35q36 0 58 -23t22 -59q0 -43 -32 -78.5t-76 -35.5zM1186 1608q-36 0 -59 23t-23 59q0 44 31.5 79t78.5 35q36 0 58 -23 t22 -59q0 -43 -32 -78.5t-76 -35.5z" />
<glyph unicode="&#x2c6;" horiz-adv-x="690" d="M195 1065l405 369q11 -26 30.5 -67t78 -136.5t114.5 -151.5q0 -19 -15.5 -36t-45.5 -17q-38 0 -74.5 39t-60.5 93t-39 103.5t-17 77.5l-299 -313z" />
<glyph unicode="&#x2dc;" horiz-adv-x="778" d="M434 1309q40 0 76.5 -15.5t59 -34t56.5 -34t70 -15.5q102 0 164 105l21 -33q-36 -85 -101.5 -134.5t-148.5 -49.5q-42 0 -78.5 15.5t-58.5 33.5t-55.5 33.5t-69.5 15.5q-102 0 -164 -104l-21 32q36 85 101.5 135t148.5 50z" />
<glyph unicode="&#x2000;" horiz-adv-x="982" />
<glyph unicode="&#x2001;" horiz-adv-x="1964" />
<glyph unicode="&#x2002;" horiz-adv-x="982" />
<glyph unicode="&#x2003;" horiz-adv-x="1964" />
<glyph unicode="&#x2004;" horiz-adv-x="654" />
<glyph unicode="&#x2005;" horiz-adv-x="491" />
<glyph unicode="&#x2006;" horiz-adv-x="327" />
<glyph unicode="&#x2007;" horiz-adv-x="327" />
<glyph unicode="&#x2008;" horiz-adv-x="245" />
<glyph unicode="&#x2009;" horiz-adv-x="392" />
<glyph unicode="&#x200a;" horiz-adv-x="109" />
<glyph unicode="&#x2010;" horiz-adv-x="796" d="M725 530q-284 -15 -584 -112l-14 28q101 68 246 128.5t266 60.5q44 0 71 -17.5t27 -48.5q0 -23 -12 -39z" />
<glyph unicode="&#x2011;" horiz-adv-x="796" d="M725 530q-284 -15 -584 -112l-14 28q101 68 246 128.5t266 60.5q44 0 71 -17.5t27 -48.5q0 -23 -12 -39z" />
<glyph unicode="&#x2012;" horiz-adv-x="796" d="M725 530q-284 -15 -584 -112l-14 28q101 68 246 128.5t266 60.5q44 0 71 -17.5t27 -48.5q0 -23 -12 -39z" />
<glyph unicode="&#x2013;" horiz-adv-x="1253" d="M1126 426h-1032l31 111h1032z" />
<glyph unicode="&#x2014;" horiz-adv-x="2269" d="M2142 426h-2048l31 111h2048z" />
<glyph unicode="&#x2018;" horiz-adv-x="499" d="M358 913q-51 0 -81.5 37t-30.5 94q0 147 114 261t267 147l6 -31q-89 -33 -153 -101.5t-64 -158.5q0 -96 67 -131q-10 -48 -44 -82.5t-81 -34.5z" />
<glyph unicode="&#x2019;" horiz-adv-x="499" d="M418 1452q51 0 81.5 -37t30.5 -94q0 -147 -113.5 -261.5t-266.5 -146.5l-7 31q89 33 153 101.5t64 158.5q0 96 -67 131q10 48 44 82.5t81 34.5z" />
<glyph unicode="&#x201a;" horiz-adv-x="501" d="M233 213q51 0 82 -37t31 -94q0 -147 -114 -261t-267 -147l-6 31q89 33 153 101.5t64 158.5q0 96 -67 131q10 49 43.5 83t80.5 34z" />
<glyph unicode="&#x201c;" horiz-adv-x="847" d="M358 913q-51 0 -81.5 37t-30.5 94q0 147 114 261t267 147l6 -31q-89 -33 -153 -101.5t-64 -158.5q0 -96 67 -131q-10 -48 -44 -82.5t-81 -34.5zM707 913q-51 0 -82 37t-31 94q0 147 114 261t267 147l6 -31q-89 -33 -153 -101.5t-64 -158.5q0 -96 67 -131 q-10 -49 -43.5 -83t-80.5 -34z" />
<glyph unicode="&#x201d;" horiz-adv-x="847" d="M766 1452q51 0 82 -37t31 -94q0 -147 -114 -261t-267 -147l-6 31q89 33 153 101.5t64 158.5q0 95 -68 131q10 48 44 82.5t81 34.5zM418 1452q51 0 81.5 -37t30.5 -94q0 -147 -113.5 -261.5t-266.5 -146.5l-7 31q89 33 153 101.5t64 158.5q0 96 -67 131q10 48 44 82.5 t81 34.5z" />
<glyph unicode="&#x201e;" horiz-adv-x="849" d="M582 213q51 0 81.5 -37t30.5 -94q0 -147 -114 -261t-267 -147l-6 31q89 33 153 101.5t64 158.5q0 96 -67 131q10 48 44 82.5t81 34.5zM233 213q51 0 82 -37t31 -94q0 -147 -114 -261t-267 -147l-6 31q89 33 153 101.5t64 158.5q0 96 -67 131q10 49 43.5 83t80.5 34z" />
<glyph unicode="&#x2022;" horiz-adv-x="1024" d="M154 451q0 149 104.5 253.5t253.5 104.5t253.5 -104.5t104.5 -253.5q0 -148 -104.5 -253.5t-253.5 -105.5t-253.5 105.5t-104.5 253.5z" />
<glyph unicode="&#x202f;" horiz-adv-x="392" />
<glyph unicode="&#x2039;" horiz-adv-x="598" d="M184 485l432 443l23 -92l-356 -347q43 -41 80.5 -88.5t71.5 -116.5t34 -128q0 -47 -23.5 -86t-60.5 -39q-36 120 -86 233.5t-83 167.5z" />
<glyph unicode="&#x203a;" horiz-adv-x="598" d="M496 473l-433 -442l-22 92l356 346q-67 65 -126.5 164t-59.5 184q0 44 24 77.5t60 33.5q37 -108 87.5 -221.5t81.5 -173.5z" />
<glyph unicode="&#x205f;" horiz-adv-x="491" />
<glyph unicode="&#x20ac;" horiz-adv-x="819" d="M729 715q12 34 12 57q0 84 -104 84q-99 0 -178.5 -78.5t-130.5 -204.5h24l301 7l-20 -70q-160 4 -328 4q-19 -57 -26 -96h28l301 4l-20 -70q-164 4 -297 4h-25q-8 -55 -8 -118q0 -74 34.5 -114t96.5 -40q89 0 169 57.5t140 139.5l31 -23q-19 -38 -41.5 -74t-58 -77 t-75.5 -70.5t-94 -49.5t-112 -20q-258 0 -258 248q0 74 14 137h-88l19 70q37 -2 88 -2q5 20 33 92l-97 -2l19 70q44 -3 110 -7q90 166 237 273.5t316 107.5q61 0 105.5 -27.5t44.5 -84.5t-40 -94t-93 -37q-17 0 -29 4z" />
<glyph unicode="&#x2122;" horiz-adv-x="1222" d="M612 1442h15l-9 -109l-14 2q0 31 -20.5 47.5t-55.5 16.5h-53v-312q0 -27 8.5 -37t28.5 -12l18 -2v-26q-51 2 -92 2l-98 -2v26l16 2q41 5 41 80v281h-43q-84 0 -96 -66l-12 4l6 105h14q11 -8 25 -8h295q9 0 15.5 2t8.5 4zM711 1124l20 226q3 48 -33 53l-22 4v27 q66 -4 117 -4q0 -26 10 -48l131 -288l117 280q6 15 9.5 29t3.5 21l1 6q43 0 137 4v-27l-22 -4q-30 -6 -27 -41l25 -281q2 -20 12 -30t33 -13l18 -2v-26q-39 2 -113 2l-94 -2v26l17 2q47 6 41 78l-23 227l-135 -333l-23 -9l-147 336l-19 -233q-2 -30 5.5 -46.5t33.5 -19.5 l19 -2v-26q-43 2 -90 2l-74 -2v26l14 2q24 3 39.5 26.5t18.5 59.5z" />
<glyph unicode="&#x25fc;" horiz-adv-x="952" d="M0 952h952v-952h-952v952z" />
</font>
</defs>
</svg>
